<svg width="202" height="273" viewBox="0 0 202 273" fill="none" xmlns="http://www.w3.org/2000/svg">
<mask id="path-1-inside-1_3_1282" fill="white">
<path d="M199 0L199 47.5L199 273L129.974 273L102.704 223.107L83.1044 273L3 273L3 47.5L3.00001 9.41378L3.00002 -8.56743e-06L112.2 -3.79415e-06L199 0Z"/>
</mask>
<path d="M199 0L199 47.5L199 273L129.974 273L102.704 223.107L83.1044 273L3 273L3 47.5L3.00001 9.41378L3.00002 -8.56743e-06L112.2 -3.79415e-06L199 0Z" fill="#17C2CE"/>
<path d="M102.704 47.5L102.704 49L102.704 47.5ZM199 47.5L199 46L102.704 46L102.704 47.5L102.704 49L199 49L199 47.5ZM102.704 47.5L102.704 46L3 46L3 47.5L3 49L102.704 49L102.704 47.5ZM199 0L202 -8.67597e-07L202 -3L199 -3L199 0ZM199 273L199 276L202 276L202 273L199 273ZM3 273L3.32558e-06 273L3.19445e-06 276L3 276L3 273ZM3.00002 -8.56743e-06L3.00002 -3.00001L1.53899e-05 -3.00001L1.52588e-05 -8.69857e-06L3.00002 -8.56743e-06ZM102.704 223.107L105.337 221.668L102.259 216.036L99.9121 222.01L102.704 223.107ZM199 47.5L202 47.5V47.5L199 47.5ZM3 47.5L-2.07629e-06 47.5V47.5L3 47.5ZM3.00001 9.41378L6.00001 9.41379L6.00001 9.41379L3.00001 9.41378ZM129.974 273L127.341 274.439L128.195 276L129.974 276L129.974 273ZM83.1044 273L83.1044 276L85.149 276L85.8966 274.097L83.1044 273ZM3.00002 -8.56743e-06L3.00002 2.99999L112.2 3L112.2 -3.79415e-06L112.2 -3L3.00002 -3.00001L3.00002 -8.56743e-06ZM112.2 -3.79415e-06L112.2 3L199 3L199 0L199 -3L112.2 -3L112.2 -3.79415e-06ZM199 0L196 8.67596e-07L196 47.5L199 47.5L202 47.5L202 -8.67597e-07L199 0ZM199 47.5L196 47.5L196 273L199 273L202 273L202 47.5L199 47.5ZM3 273L6 273L6 47.5L3 47.5L-2.07629e-06 47.5L3.32558e-06 273L3 273ZM3 47.5L6 47.5L6.00001 9.41379L3.00001 9.41378L1.48473e-05 9.41378L-2.07629e-06 47.5L3 47.5ZM3.00001 9.41378L6.00001 9.41379L6.00002 -8.4363e-06L3.00002 -8.56743e-06L1.52588e-05 -8.69857e-06L1.48473e-05 9.41378L3.00001 9.41378ZM199 273L199 270L129.974 270L129.974 273L129.974 276L199 276L199 273ZM129.974 273L132.606 271.561L105.337 221.668L102.704 223.107L100.072 224.546L127.341 274.439L129.974 273ZM102.704 223.107L99.9121 222.01L80.3121 271.903L83.1044 273L85.8966 274.097L105.497 224.204L102.704 223.107ZM83.1044 273L83.1044 270L3 270L3 273L3 276L83.1044 276L83.1044 273Z" fill="#3DF0FA" mask="url(#path-1-inside-1_3_1282)"/>
<g clip-path="url(#clip0_3_1282)">
<path d="M34.8628 232.792C34.4476 232.792 34.1041 232.45 34.0939 232.019C34.0836 231.583 34.4219 231.226 34.8474 231.216C34.873 231.216 37.4873 231.147 41.0705 230.433C41.4857 230.349 41.8907 230.627 41.9727 231.058C42.0547 231.484 41.783 231.899 41.3627 231.983C37.6411 232.723 34.9909 232.792 34.8782 232.792C34.873 232.792 34.8679 232.792 34.8628 232.792Z" fill="#8259E7" stroke="#0000F4" stroke-width="1.5" stroke-linecap="round" stroke-linejoin="round"/>
<path d="M49.1801 229.577C48.8776 229.577 48.5906 229.393 48.4676 229.093C48.3035 228.689 48.4881 228.232 48.8828 228.064C53.5373 226.083 57.0948 223.336 59.458 219.895C59.704 219.538 60.1807 219.454 60.5293 219.706C60.8779 219.958 60.9599 220.447 60.7139 220.804C58.1764 224.486 54.3934 227.423 49.4723 229.519C49.3749 229.561 49.2775 229.582 49.175 229.582L49.1801 229.577ZM62.6105 216.103C62.5183 216.103 62.426 216.087 62.3388 216.05C61.9441 215.898 61.7391 215.441 61.8929 215.036C62.9078 212.284 63.4922 209.573 63.6306 206.989C63.6511 206.553 64.0048 206.216 64.4405 206.243C64.866 206.269 65.189 206.637 65.1685 207.073C65.0198 209.82 64.4047 212.688 63.3333 215.593C63.2154 215.908 62.9232 216.103 62.6157 216.103H62.6105Z" fill="#8259E7" stroke="#0000F4" stroke-width="1.5" stroke-linecap="round" stroke-linejoin="round"/>
<path d="M63.2871 199.419C62.9693 199.419 62.6668 199.214 62.5592 198.883C61.252 194.933 58.7402 191.119 55.0853 187.547C54.7777 187.248 54.7675 186.749 55.0597 186.434C55.3519 186.118 55.8388 186.108 56.1464 186.407C59.9807 190.158 62.6258 194.187 64.015 198.379C64.1534 198.789 63.933 199.24 63.5331 199.377C63.4511 199.403 63.3691 199.419 63.2871 199.419ZM49.221 182.331C49.0416 182.331 48.8622 182.268 48.7135 182.137C44.4383 178.302 42.0803 173.784 42.0701 169.419C42.0701 168.983 42.4135 168.631 42.839 168.631C43.2645 168.631 43.6079 168.983 43.6079 169.419C43.6182 173.327 45.7916 177.419 49.7285 180.955C50.0463 181.244 50.0822 181.737 49.8003 182.068C49.6465 182.247 49.4363 182.336 49.221 182.336V182.331ZM155.527 165.374C155.127 165.374 154.794 165.059 154.763 164.649C154.732 164.213 155.045 163.835 155.47 163.804C158.356 163.573 160.991 162.963 163.308 161.981C163.698 161.818 164.149 162.007 164.313 162.406C164.477 162.811 164.287 163.268 163.892 163.436C161.427 164.476 158.633 165.127 155.588 165.369C155.568 165.369 155.547 165.369 155.527 165.369V165.374ZM149.99 165.374C149.99 165.374 149.954 165.374 149.934 165.374C145.69 165.059 141.163 164.056 136.473 162.401L136.242 162.322C135.842 162.18 135.627 161.734 135.765 161.319C135.904 160.909 136.339 160.689 136.744 160.83L136.98 160.915C141.542 162.522 145.941 163.494 150.052 163.804C150.477 163.835 150.795 164.213 150.764 164.649C150.734 165.064 150.395 165.38 150.001 165.38L149.99 165.374ZM44.2487 164.786C44.1205 164.786 43.9872 164.754 43.8693 164.681C43.5003 164.466 43.3721 163.988 43.5823 163.609C44.8689 161.282 46.9553 159.223 49.7746 157.49C50.1386 157.264 50.6102 157.385 50.8306 157.757C51.051 158.13 50.9331 158.614 50.5692 158.84C47.9805 160.431 46.0787 162.301 44.9202 164.387C44.7767 164.644 44.5204 164.786 44.2487 164.786ZM128.63 159.617C128.548 159.617 128.466 159.607 128.389 159.575C123.027 157.742 118.952 156.481 115.189 155.478C114.779 155.367 114.533 154.937 114.641 154.516C114.748 154.096 115.169 153.839 115.579 153.954C119.377 154.968 123.478 156.239 128.876 158.083C129.281 158.22 129.496 158.666 129.363 159.081C129.255 159.412 128.958 159.622 128.635 159.622L128.63 159.617ZM170.3 158.614C170.131 158.614 169.957 158.556 169.813 158.435C169.485 158.157 169.439 157.663 169.705 157.327C171.448 155.157 172.366 152.589 172.366 149.894C172.366 148.202 172.007 146.485 171.305 144.793C171.136 144.394 171.32 143.932 171.71 143.758C172.099 143.59 172.55 143.774 172.72 144.173C173.509 146.064 173.904 147.987 173.904 149.894C173.904 152.956 172.863 155.872 170.89 158.325C170.736 158.514 170.515 158.614 170.295 158.614H170.3ZM57.7919 155.619C57.4638 155.619 57.1563 155.399 57.0537 155.057C56.9307 154.642 57.1614 154.201 57.5663 154.075C60.8471 153.061 64.6353 152.294 68.8284 151.795C69.6691 151.695 70.4944 151.601 71.3095 151.512C71.7298 151.459 72.1091 151.78 72.1553 152.21C72.2014 152.641 71.8939 153.03 71.4735 153.077C70.6636 153.166 69.8434 153.261 69.0078 153.361C64.9018 153.849 61.2059 154.6 58.0072 155.588C57.9354 155.609 57.8585 155.619 57.7868 155.619H57.7919ZM107.274 153.66C107.228 153.66 107.182 153.66 107.136 153.65C104.399 153.14 101.728 152.762 98.9752 152.494C98.5497 152.452 98.2421 152.068 98.2831 151.638C98.3241 151.202 98.7035 150.887 99.1187 150.929C101.918 151.196 104.629 151.58 107.413 152.1C107.828 152.179 108.11 152.589 108.033 153.014C107.966 153.392 107.643 153.66 107.279 153.66H107.274ZM79.6753 152.352C79.2703 152.352 78.9371 152.032 78.9064 151.617C78.8808 151.181 79.1986 150.808 79.624 150.781C82.9253 150.561 85.9702 150.456 88.9331 150.456C90.4966 150.456 92.0498 150.487 93.5466 150.55C93.9721 150.566 94.3001 150.934 94.2848 151.37C94.2694 151.806 93.9157 152.137 93.4851 152.126C92.0088 152.063 90.4812 152.037 88.9331 152.037C86.0009 152.037 82.9868 152.142 79.7214 152.357C79.7061 152.357 79.6856 152.357 79.6702 152.357L79.6753 152.352ZM167.158 138.437C166.968 138.437 166.778 138.369 166.63 138.222C163.79 135.485 159.966 132.942 155.255 130.662C154.87 130.479 154.706 130.006 154.886 129.612C155.065 129.218 155.527 129.05 155.911 129.234C160.765 131.587 164.728 134.219 167.681 137.071C167.988 137.371 168.004 137.87 167.716 138.185C167.568 138.348 167.363 138.432 167.158 138.432V138.437ZM150.488 128.514C150.395 128.514 150.303 128.498 150.211 128.461C147.76 127.495 145.126 126.602 142.388 125.798C141.978 125.677 141.742 125.241 141.86 124.826C141.978 124.411 142.404 124.164 142.809 124.285C145.592 125.1 148.268 126.008 150.759 126.991C151.154 127.148 151.354 127.605 151.2 128.01C151.082 128.325 150.79 128.514 150.482 128.514H150.488ZM134.53 123.802C134.479 123.802 134.422 123.797 134.371 123.786C130.045 122.862 125.467 122.132 120.761 121.617C120.341 121.569 120.033 121.181 120.079 120.75C120.126 120.319 120.51 120.004 120.925 120.051C125.682 120.571 130.311 121.312 134.684 122.242C135.099 122.331 135.366 122.746 135.278 123.172C135.201 123.545 134.884 123.797 134.525 123.797L134.53 123.802ZM84.8834 121.554C84.4887 121.554 84.1555 121.249 84.1197 120.839C84.0787 120.409 84.3913 120.02 84.8117 119.983C87.59 119.715 90.3889 119.51 93.1314 119.363C93.5671 119.342 93.9157 119.673 93.9413 120.109C93.9618 120.545 93.6389 120.913 93.2134 120.939C90.4914 121.081 87.7131 121.291 84.9552 121.554C84.9296 121.554 84.9091 121.554 84.8834 121.554ZM112.559 120.939C112.559 120.939 112.534 120.939 112.518 120.939C109.386 120.766 106.167 120.676 102.948 120.676C101.569 120.666 100.134 120.692 98.7291 120.724C98.3242 120.745 97.9551 120.388 97.9448 119.952C97.9346 119.516 98.2729 119.153 98.6984 119.148C100.108 119.116 101.538 119.101 102.938 119.101H102.953C106.198 119.101 109.448 119.19 112.606 119.368C113.031 119.395 113.354 119.762 113.333 120.198C113.313 120.619 112.969 120.944 112.565 120.944L112.559 120.939Z" fill="#8259E7" stroke="#0000F4" stroke-width="1.5" stroke-linecap="round" stroke-linejoin="round"/>
<path d="M70.1817 123.497C69.8127 123.497 69.4846 123.224 69.4231 122.835C69.3564 122.405 69.6384 122 70.0587 121.932C72.1707 121.575 74.3134 121.249 76.4202 120.96C76.8406 120.902 77.2302 121.207 77.2866 121.638C77.3429 122.069 77.0456 122.468 76.6253 122.526C74.5338 122.814 72.4065 123.14 70.3099 123.492C70.2689 123.497 70.2279 123.503 70.1817 123.503V123.497Z" fill="#8259E7" stroke="#0000F4" stroke-width="1.5" stroke-linecap="round" stroke-linejoin="round"/>
<path d="M145.746 170.528C145.746 170.528 145.751 168.558 138.744 164.271C131.736 159.985 119.254 149.379 110.847 142.398C102.446 135.416 98.8215 138.637 96.9658 144.614C95.105 150.592 97.7296 154.501 100.805 157.616C103.886 160.731 132.628 175.502 132.628 175.502H143.46L145.746 170.533V170.528Z" fill="#AA51F6" stroke="#0000F4" stroke-width="1.5" stroke-linecap="round" stroke-linejoin="round"/>
<path d="M145.766 170.512C145.766 170.512 138.733 176.453 128.194 170.165C117.655 163.877 113.605 154.753 104.87 154.658C96.1353 154.569 95.7201 160.452 86.9749 159.391C78.2298 158.33 83.3815 149.736 78.4912 149.2C73.6009 148.665 68.3415 163.793 71.2736 179.547C71.2736 179.547 87.8361 182.856 111.949 190.111C136.063 197.365 157.29 198.347 165.241 195.038C173.191 191.723 175.57 184.763 171.295 182.147C167.019 179.531 153.82 174.635 145.772 170.512H145.766Z" fill="#77EEBC" stroke="#0000F4" stroke-width="1.5" stroke-linecap="round" stroke-linejoin="round"/>
<path d="M171.289 182.142C170.403 181.601 169.131 180.96 167.609 180.251C171.987 186.775 159.361 187.258 149.862 186.255C140.364 185.252 137.021 180.083 128.666 181.79C122.273 183.098 114.261 187.689 110.852 189.78C111.216 189.89 111.58 189.995 111.949 190.106C136.063 197.36 157.29 198.342 165.241 195.033C173.191 191.718 175.57 184.758 171.295 182.142H171.289Z" fill="#F3C254" stroke="#0000F4" stroke-width="1.5" stroke-linecap="round" stroke-linejoin="round"/>
<path d="M97.053 179.321L117.276 167.46L111.903 162.764L90.9785 175.208L97.053 179.321Z" fill="#65A0F5" stroke="#0000F4" stroke-width="1.5" stroke-linecap="round" stroke-linejoin="round"/>
<path d="M106.541 187.395L126.764 175.533L121.392 170.832L100.472 183.276L106.541 187.395Z" fill="#65A0F5" stroke="#0000F4" stroke-width="1.5" stroke-linecap="round" stroke-linejoin="round"/>
<path d="M139.174 195.973C111.457 191.629 106.88 180.802 92.3831 170.454C82.3974 163.326 75.2669 160.137 71.7914 158.845C70.351 164.471 69.8486 171.93 71.2686 179.547C71.2686 179.547 87.8311 182.856 111.944 190.111C121.725 193.052 131.034 194.964 139.174 195.973Z" fill="#5EC5D1" stroke="#0000F4" stroke-width="1.5" stroke-linecap="round" stroke-linejoin="round"/>
<path d="M70.5253 167.191C70.2895 171.068 70.4791 175.281 71.2737 179.546C71.2737 179.546 81.4747 181.585 97.5194 185.966C92.1934 182.357 85.9908 177.802 81.5772 174.104C77.3225 170.532 73.1857 168.368 70.5253 167.191Z" fill="#B5FBE0" stroke="#0000F4" stroke-width="1.5" stroke-linecap="round" stroke-linejoin="round"/>
<path d="M173.468 184.9L173.278 184.89C173.965 188.099 171.136 192.575 165.23 195.033C157.28 198.348 136.052 197.36 111.939 190.106C87.8259 182.851 71.2634 179.542 71.2634 179.542C71.2634 179.542 65.476 180.887 66.8652 187.957C68.2544 195.028 83.6328 194.135 95.51 194.76C107.392 195.385 114.128 201.016 133.735 204.289C153.343 207.562 166.471 199.803 170.218 195.401C173.96 190.999 173.463 184.89 173.463 184.89L173.468 184.9Z" fill="#1E49F1" stroke="#0000F4" stroke-width="1.5" stroke-linecap="round" stroke-linejoin="round"/>
<path d="M71.2737 179.547C71.2737 179.547 69.7922 179.894 68.5056 181.149C68.5056 181.149 66.7114 185.467 72.8269 187.395C78.9424 189.323 93.0905 189.559 100.59 190.111C108.09 190.662 123.109 193.084 123.109 193.084C119.49 192.243 115.758 191.256 111.949 190.111C87.8362 182.856 71.2737 179.547 71.2737 179.547Z" fill="#65A0F5" stroke="#0000F4" stroke-width="1.5" stroke-linecap="round" stroke-linejoin="round"/>
<path d="M130.491 174.036C130.321 174.036 130.147 173.989 129.993 173.9C129.614 173.674 129.419 173.217 129.527 172.781L131.854 162.895L125.559 169.272C125.252 169.582 124.79 169.655 124.411 169.456C124.032 169.256 123.816 168.831 123.878 168.4L125.498 157.295L117.952 164.308C117.614 164.618 117.117 164.66 116.737 164.402C116.358 164.145 116.199 163.662 116.348 163.22L119.767 153.093L111.888 160.095C111.473 160.462 110.847 160.415 110.488 159.995C110.13 159.569 110.176 158.929 110.586 158.561L121.269 149.069C121.607 148.769 122.104 148.738 122.478 148.995C122.853 149.253 123.006 149.736 122.863 150.172L119.5 160.137L126.236 153.88C126.549 153.592 127 153.534 127.374 153.739C127.743 153.944 127.948 154.364 127.887 154.789L126.297 165.694L132.956 158.955C133.274 158.634 133.761 158.571 134.146 158.792C134.53 159.018 134.725 159.475 134.622 159.916L132.264 169.939L139.559 162.847C139.959 162.459 140.584 162.48 140.963 162.884C141.343 163.294 141.322 163.935 140.927 164.323L131.193 173.779C131.003 173.963 130.757 174.057 130.511 174.057L130.491 174.036Z" fill="#65A0F5" stroke="#0000F4" stroke-width="1.5" stroke-linecap="round" stroke-linejoin="round"/>
<path d="M149.18 117.01L159.161 109.798L162.437 99.3184H161.288L157.608 108.627L150.488 111.395L149.18 117.01Z" fill="#8259E7" stroke="#0000F4" stroke-width="1.5" stroke-linecap="round" stroke-linejoin="round"/>
<path d="M160.063 98.7295L161.288 99.3178L157.608 108.626L150.488 111.394L146.889 109.551L156.465 106.698L160.063 98.7295Z" fill="#C8D4FA" stroke="#0000F4" stroke-width="1.5" stroke-linecap="round" stroke-linejoin="round"/>
<path d="M156.465 106.698L157.608 108.626L161.288 99.3178L160.063 98.7295L156.465 106.698Z" fill="#C8D4FA" stroke="#0000F4" stroke-width="1.5" stroke-linecap="round" stroke-linejoin="round"/>
<path d="M176.836 85.25L176.795 99.7536L165.482 106.493L165.523 91.9844L176.836 85.25Z" fill="#77EEBC" stroke="#0000F4" stroke-width="1.5" stroke-linecap="round" stroke-linejoin="round"/>
<path d="M165.523 91.9844L165.482 106.493L154.091 99.7536L154.127 85.25L165.523 91.9844Z" fill="#7EEEF8" stroke="#0000F4" stroke-width="1.5" stroke-linecap="round" stroke-linejoin="round"/>
<path d="M176.836 85.2503L165.523 91.9847L154.128 85.2503L165.446 78.5107L176.836 85.2503Z" fill="#B5FBE0" stroke="#0000F4" stroke-width="1.5" stroke-linecap="round" stroke-linejoin="round"/>
<path d="M144.926 155.121L156.465 148.076L149.222 121.16L154.255 105.065L146.889 77.1396L144.68 77.8961L149.591 105.438L140.63 123.55L144.926 155.121Z" fill="#8259E7" stroke="#0000F4" stroke-width="1.5" stroke-linecap="round" stroke-linejoin="round"/>
<path d="M144.926 155.121L132.531 148.202L134.981 123.172L146.151 104.686L142.593 77.1396L144.68 77.8961L149.59 105.438L140.63 123.55L144.926 155.121Z" fill="#C8D4FA" stroke="#0000F4" stroke-width="1.5" stroke-linecap="round" stroke-linejoin="round"/>
<path d="M134.981 123.172L140.63 123.55L149.591 105.438L146.151 104.687L134.981 123.172Z" fill="#C8D4FA" stroke="#0000F4" stroke-width="1.5" stroke-linecap="round" stroke-linejoin="round"/>
<path d="M128.804 112.986L130.608 129.585L135.76 137.554L139.769 139.062L132.531 129.002L130.116 112.229L128.804 112.986Z" fill="#C8D4FA" stroke="#0000F4" stroke-width="1.5" stroke-linecap="round" stroke-linejoin="round"/>
<path d="M131.26 111.814L135.35 127.074L138.052 129.002L139.769 139.062L132.531 129.002L130.116 112.229L131.26 111.814Z" fill="#8259E7" stroke="#0000F4" stroke-width="1.5" stroke-linecap="round" stroke-linejoin="round"/>
<path d="M132.531 129.002L130.608 129.585L128.804 112.986L130.116 112.229L132.531 129.002Z" fill="#C8D4FA" stroke="#0000F4" stroke-width="1.5" stroke-linecap="round" stroke-linejoin="round"/>
<path d="M141.363 99.9434L141.317 115.96L128.825 123.403L128.871 107.382L141.363 99.9434Z" fill="#77EEBC" stroke="#0000F4" stroke-width="1.5" stroke-linecap="round" stroke-linejoin="round"/>
<path d="M128.871 107.382L128.825 123.403L116.25 115.96L116.291 99.9434L128.871 107.382Z" fill="#7EEEF8" stroke="#0000F4" stroke-width="1.5" stroke-linecap="round" stroke-linejoin="round"/>
<path d="M141.363 99.9435L128.871 107.382L116.292 99.9435L128.789 92.5L141.363 99.9435Z" fill="#B5FBE0" stroke="#0000F4" stroke-width="1.5" stroke-linecap="round" stroke-linejoin="round"/>
<path d="M158.925 62.2686L158.864 84.6726L141.389 95.0788L141.45 72.6748L158.925 62.2686Z" fill="#77EEBC" stroke="#0000F4" stroke-width="1.5" stroke-linecap="round" stroke-linejoin="round"/>
<path d="M141.45 72.6748L141.389 95.0788L123.801 84.6726L123.863 62.2686L141.45 72.6748Z" fill="#7EEEF8" stroke="#0000F4" stroke-width="1.5" stroke-linecap="round" stroke-linejoin="round"/>
<path d="M158.925 62.2685L141.45 72.6747L123.863 62.2685L141.338 51.8623L158.925 62.2685Z" fill="#B5FBE0" stroke="#0000F4" stroke-width="1.5" stroke-linecap="round" stroke-linejoin="round"/>
<path d="M58.8941 128.383C63.2681 128.383 66.814 126.347 66.814 123.834C66.814 121.322 63.2681 119.285 58.8941 119.285C54.5201 119.285 50.9742 121.322 50.9742 123.834C50.9742 126.347 54.5201 128.383 58.8941 128.383Z" fill="#8259E7" stroke="#0000F4" stroke-width="1.5" stroke-linecap="round" stroke-linejoin="round"/>
<path d="M72.5193 98.6564C73.7804 96.2137 74.4416 93.3929 74.2827 90.3987C73.8675 82.4771 67.6239 76.0107 59.8988 75.5064C50.9332 74.9233 43.4799 82.204 43.4799 91.2654C43.4799 93.9602 44.1411 96.4974 45.2996 98.7142L45.3201 98.7562C45.3355 98.7877 45.356 98.8245 45.3714 98.856L57.6843 121.722C58.2072 122.694 59.5708 122.699 60.0936 121.722C63.4205 115.54 72.504 98.6669 72.5142 98.6511L72.5193 98.6564ZM58.8941 83.6485C63.0001 83.6485 66.3321 87.0577 66.3321 91.2707C66.3321 95.4836 63.0053 98.8928 58.8941 98.8928C54.783 98.8928 51.4561 95.4836 51.4561 91.2707C51.4561 87.0577 54.783 83.6485 58.8941 83.6485Z" fill="#EB7956" stroke="#0000F4" stroke-width="1.5" stroke-linecap="round" stroke-linejoin="round"/>
<path d="M22.5396 236.337C26.9136 236.337 30.4595 234.301 30.4595 231.788C30.4595 229.276 26.9136 227.239 22.5396 227.239C18.1656 227.239 14.6198 229.276 14.6198 231.788C14.6198 234.301 18.1656 236.337 22.5396 236.337Z" fill="#C8D4FA" stroke="#0000F4" stroke-width="1.5" stroke-linecap="round" stroke-linejoin="round"/>
<path d="M52.717 192.043C53.3117 191.928 53.773 192.558 53.4911 193.11C51.7892 196.461 46.9399 204.614 39.302 206.148C29.6341 208.086 27.4863 208.228 22.5806 213.696V187.447C22.5806 187.447 27.3376 183.912 35.5855 187.93C43.003 191.544 48.2881 192.915 52.717 192.049V192.043Z" fill="#1E49F1" stroke="#0000F4" stroke-width="1.5" stroke-linecap="round" stroke-linejoin="round"/>
<path d="M24.4722 185.94L24.385 231.232C24.385 231.515 24.2005 231.804 23.8365 232.02C23.0984 232.461 21.904 232.461 21.1607 232.02C20.7865 231.799 20.6019 231.51 20.6019 231.221L20.6891 185.93C20.6891 186.219 20.8736 186.508 21.2478 186.728C21.9911 187.169 23.1855 187.169 23.9237 186.728C24.2927 186.508 24.4722 186.224 24.4722 185.94Z" fill="#8259E7" stroke="#0000F4" stroke-width="1.5" stroke-linecap="round" stroke-linejoin="round"/>
<path d="M23.9134 185.141C24.6567 185.583 24.6618 186.292 23.9237 186.728C23.1855 187.164 21.9911 187.169 21.2478 186.728C20.5045 186.287 20.4994 185.577 21.2376 185.141C21.9757 184.705 23.1752 184.705 23.9134 185.141Z" fill="#C8D4FA" stroke="#0000F4" stroke-width="1.5" stroke-linecap="round" stroke-linejoin="round"/>
</g>
<defs>
<clipPath id="clip0_3_1282">
<rect width="202" height="207" fill="white" transform="translate(0 38)"/>
</clipPath>
</defs>
</svg>
