<svg width="196" height="378" viewBox="0 0 196 378" fill="none" xmlns="http://www.w3.org/2000/svg">
<mask id="path-1-inside-1_3_1439" fill="white">
<path d="M196 -8.56743e-06L196 46.5544L196 378.003L98 293L-1.26424e-06 378.003L1.32238e-05 46.5544L1.37604e-05 34.2785L1.52588e-05 -8.56743e-06L104 -8.56743e-06L196 -8.56743e-06Z"/>
</mask>
<path d="M196 -8.56743e-06L196 46.5544L196 378.003L98 293L-1.26424e-06 378.003L1.32238e-05 46.5544L1.37604e-05 34.2785L1.52588e-05 -8.56743e-06L104 -8.56743e-06L196 -8.56743e-06Z" fill="#FC795C"/>
<path d="M196 46.5544L196 45.0544L1.32894e-05 45.0544L1.32238e-05 46.5544L1.31583e-05 48.0544L196 48.0544L196 46.5544ZM196 -8.56743e-06L199 -9.50105e-06L199 -3.00001L196 -3.00001L196 -8.56743e-06ZM196 378.003L194.034 380.269L199 384.576L199 378.003L196 378.003ZM-1.26424e-06 378.003L-3 378.003L-3 384.576L1.96571 380.269L-1.26424e-06 378.003ZM1.52588e-05 -8.56743e-06L1.53899e-05 -3.00001L-2.99998 -3.00001L-2.99998 -8.69857e-06L1.52588e-05 -8.56743e-06ZM98 293L99.9657 290.734L98 289.029L96.0343 290.734L98 293ZM104 -8.56743e-06L104 2.99999L104 -8.56743e-06ZM196 46.5544L199 46.5544V46.5544L196 46.5544ZM196 378.003L197.966 375.737L99.9657 290.734L98 293L96.0343 295.266L194.034 380.269L196 378.003ZM98 293L96.0343 290.734L-1.96571 375.737L-1.26424e-06 378.003L1.96571 380.269L99.9657 295.266L98 293ZM1.52588e-05 -8.56743e-06L1.51277e-05 2.99999L104 2.99999L104 -8.56743e-06L104 -3.00001L1.53899e-05 -3.00001L1.52588e-05 -8.56743e-06ZM104 -8.56743e-06L104 2.99999L196 2.99999L196 -8.56743e-06L196 -3.00001L104 -3.00001L104 -8.56743e-06ZM196 -8.56743e-06L193 -7.63381e-06L193 46.5544L196 46.5544L199 46.5544L199 -9.50105e-06L196 -8.56743e-06ZM196 46.5544L193 46.5544L193 378.003L196 378.003L199 378.003L199 46.5544L196 46.5544ZM-1.26424e-06 378.003L3 378.003L3.00001 46.5544L1.32238e-05 46.5544L-2.99999 46.5544L-3 378.003L-1.26424e-06 378.003ZM1.32238e-05 46.5544L3.00001 46.5544L3.00001 34.2785L1.37604e-05 34.2785L-2.99999 34.2785L-2.99999 46.5544L1.32238e-05 46.5544ZM1.37604e-05 34.2785L3.00001 34.2785L3.00002 -8.4363e-06L1.52588e-05 -8.56743e-06L-2.99998 -8.69857e-06L-2.99999 34.2785L1.37604e-05 34.2785Z" fill="#FEC5B2" mask="url(#path-1-inside-1_3_1439)"/>
<path d="M19.9098 111.763C19.9098 111.763 22.2662 107.192 54.3177 115.495C86.3691 123.798 121.345 129.417 136.963 119.856C152.582 110.295 168.2 103.466 172.426 106.884L174.702 131.613C174.702 131.613 145.254 152.438 114.997 153.086C84.7407 153.733 63.4285 148.694 49.7591 143.975C36.0959 139.256 17.9544 140.397 10.3486 144.302C10.3486 144.302 13.6426 124.451 19.9036 111.763H19.9098Z" fill="#1E49F1" stroke="#0000F5" stroke-width="1.5" stroke-linecap="round" stroke-linejoin="round"/>
<path d="M55.8908 152.838C46.7985 142.266 40.8521 130.416 37.7678 123.316C37.5827 122.896 37.8171 122.415 38.2613 122.292L64.1566 115.303L61.7447 106.371L33.9495 113.872C30.6925 114.748 28.1943 117.555 27.8489 121.132C27.7193 122.508 27.9722 123.89 28.5027 125.16C31.5376 132.458 38.1811 146.423 48.8773 158.865C55.3788 166.428 65.2793 170.523 75.3586 169.814C80.8301 169.432 86.0856 168.883 90.9834 168.179L89.6757 159.019C84.9938 159.685 79.9603 160.216 74.7109 160.58C67.5308 161.086 60.4987 158.186 55.8908 152.826V152.838Z" fill="#F3C254" stroke="#0000F5" stroke-width="1.5" stroke-linecap="round" stroke-linejoin="round"/>
<path d="M154.772 86.885C152.674 83.9673 149.103 82.8014 145.846 83.6773L118.051 91.1782L120.462 100.11L146.358 93.1213C146.802 93.0041 147.24 93.3002 147.295 93.7567C148.202 101.449 149.023 114.68 146.481 128.387C145.198 135.332 140.572 141.377 134.119 144.554C129.394 146.88 124.78 148.959 120.401 150.729L123.88 159.303C128.463 157.446 133.287 155.275 138.203 152.851C147.271 148.391 153.766 139.872 155.58 130.064C158.565 113.934 157.282 98.5187 156.234 90.6847C156.048 89.3153 155.573 87.9953 154.772 86.8726V86.885Z" fill="#F3C254" stroke="#0000F5" stroke-width="1.5" stroke-linecap="round" stroke-linejoin="round"/>
<path d="M141.238 189.134C141.238 189.134 120.166 193.471 110.772 168.038L106.688 169.142C111.37 195.852 90.9772 202.705 90.9772 202.705L89.1821 207.911L145.414 192.737L141.244 189.147L141.238 189.134Z" fill="#F3C254" stroke="#0000F5" stroke-width="1.5" stroke-linecap="round" stroke-linejoin="round"/>
<path d="M104.48 175.557C97.078 175.557 85.2592 171.832 71.0284 154.066C56.7114 136.202 48.0693 109.086 45.0221 98.2599C44.8 97.4704 44.8987 96.6438 45.3058 95.9282C45.7129 95.2127 46.373 94.7007 47.1687 94.4848L124.663 73.5736C124.923 73.4996 125.194 73.4688 125.465 73.4688C126.853 73.4688 128.068 74.4125 128.42 75.7573C131.233 86.6508 137.408 114.428 134.021 137.072C129.715 165.86 117.366 173.022 110.383 174.731C108.533 175.28 106.54 175.557 104.486 175.557H104.48Z" fill="#F3C254"/>
<path d="M125.465 73.9253C126.619 73.9253 127.667 74.6963 127.97 75.8684C130.474 85.5652 136.982 114.101 133.558 136.998C129.364 165.04 117.52 172.504 110.272 174.274C108.675 174.749 106.732 175.089 104.486 175.089C96.6769 175.089 85.1603 170.956 71.3923 153.77C56.9148 135.703 48.1864 107.766 45.4722 98.1243C45.0836 96.7364 45.8979 95.2991 47.2919 94.9228L86.0363 84.4672L124.781 74.0116C125.009 73.9499 125.237 73.9191 125.459 73.9191M125.465 73C125.157 73 124.848 73.0432 124.546 73.1234L85.8019 83.579L47.0575 94.0346C46.1446 94.2813 45.3797 94.8735 44.9109 95.6939C44.4421 96.5143 44.3311 97.4704 44.584 98.3772C47.6435 109.234 56.3041 136.418 70.6767 154.35C85.0246 172.257 96.9853 176.014 104.492 176.014C106.584 176.014 108.613 175.73 110.525 175.169C117.619 173.423 130.147 166.163 134.49 137.134C137.889 114.403 131.702 86.5522 128.883 75.6339C128.482 74.0795 127.081 73 125.484 73H125.465Z" fill="#0000F5"/>
<path d="M127.97 75.8687C127.612 74.4746 126.181 73.6419 124.787 74.0182L116.749 76.1833C116.903 76.4177 117.033 76.6768 117.107 76.9667C119.611 86.6636 126.119 115.199 122.696 138.096C118.828 163.961 108.453 172.313 101.174 174.848C104.856 175.373 107.928 174.966 110.266 174.281C117.514 172.504 129.364 165.047 133.552 137.005C136.976 114.107 130.468 85.5718 127.964 75.8749L127.97 75.8687Z" fill="#E0AC44"/>
<path d="M155.578 189.985L79.0081 210.646L84.4957 230.984L161.066 210.323L155.578 189.985Z" fill="#65A0F5" stroke="#0000F5" stroke-width="1.5" stroke-linecap="round" stroke-linejoin="round"/>
<path d="M144.625 200.606L93.813 214.316L97.3723 227.508L148.185 213.798L144.625 200.606Z" fill="#77EEBC" stroke="#0000F5" stroke-width="1.5" stroke-linecap="round" stroke-linejoin="round"/>
<path d="M169.43 208.066L76.1311 233.24L77.5291 238.422L170.828 213.248L169.43 208.066Z" fill="#1E49F1" stroke="#0000F5" stroke-width="1.5" stroke-linecap="round" stroke-linejoin="round"/>
<path d="M104.856 137.356C104.227 135.191 103.616 133.013 103.049 130.897L99.3725 117.283L97.707 110.332L96.899 110.029L85.5613 115.957L86.32 118.77L90.9155 117.068L95.215 133.007C95.7886 135.129 96.3561 137.325 96.9051 139.527L91.3967 142.439L92.0074 144.696L97.7934 143.136L105.911 140.946L111.432 139.459L110.821 137.202L104.85 137.356H104.856Z" fill="white" stroke="#0000F5" stroke-width="1.5" stroke-linecap="round" stroke-linejoin="round"/>
<path d="M19.91 111.763C19.91 111.763 11.6133 132.261 38.4586 158.86C65.3039 185.458 87.5105 194.896 87.5105 194.896C87.5105 194.896 89.2191 179.845 117.28 164.232C145.34 148.614 168.281 136.9 172.432 106.884C172.432 106.884 181.95 113.472 190 138.121C190 138.121 188.291 158.132 159.744 173.016C131.19 187.901 119.235 201.811 112.4 218.651C105.566 235.491 95.5604 241.104 95.5604 241.104C95.5604 241.104 40.1673 199.134 23.3273 181.319C6.48731 163.504 6 144.468 6 144.468C6 144.468 10.1514 124.211 19.91 111.769V111.763Z" fill="#5EC6D2" stroke="#0000F5" stroke-width="1.5" stroke-linecap="round" stroke-linejoin="round"/>
<path d="M135.094 166.916C168.762 151.303 183.85 131.101 184.121 123.385C177.941 110.708 172.432 106.884 172.432 106.884C168.281 136.9 145.346 148.614 117.28 164.232C89.2192 179.851 87.5105 194.896 87.5105 194.896C87.5105 194.896 65.3039 185.458 38.4586 158.86C11.6134 132.261 19.91 111.763 19.91 111.763C15.7339 117.086 12.588 123.835 10.355 129.824C11.6257 137.825 14.895 148.311 22.84 158.86C39.1927 180.579 91.1684 209.127 91.1684 209.127C91.1684 209.127 101.42 182.528 135.094 166.909V166.916Z" fill="#B6FCE1" stroke="#0000F5" stroke-width="1.5" stroke-linecap="round" stroke-linejoin="round"/>
<path d="M81.5949 274.075C105.555 274.075 124.978 254.651 124.978 230.692C124.978 206.732 105.555 187.309 81.5949 187.309C57.6352 187.309 38.2119 206.732 38.2119 230.692C38.2119 254.651 57.6352 274.075 81.5949 274.075Z" fill="#C0E5F5" stroke="#0000F5" stroke-width="1.5" stroke-linecap="round" stroke-linejoin="round"/>
<path d="M81.595 266.592C101.422 266.592 117.496 250.519 117.496 230.692C117.496 210.864 101.422 194.791 81.595 194.791C61.7676 194.791 45.6943 210.864 45.6943 230.692C45.6943 250.519 61.7676 266.592 81.595 266.592Z" fill="#8359E8" stroke="#0000F5" stroke-width="1.5" stroke-linecap="round" stroke-linejoin="round"/>
<path d="M81.595 258.296C96.8402 258.296 109.199 245.937 109.199 230.692C109.199 215.447 96.8402 203.088 81.595 203.088C66.3497 203.088 53.991 215.447 53.991 230.692C53.991 245.937 66.3497 258.296 81.595 258.296Z" fill="#F3C254" stroke="#0000F5" stroke-width="1.5" stroke-linecap="round" stroke-linejoin="round"/>
<path d="M77.9805 215.307C78.5665 215.591 79.1711 215.807 79.7509 216.109C81.5089 217.028 82.5205 218.126 84.661 218.422C86.0242 218.607 87.1593 218.219 88.4608 218.108C89.2689 218.04 90.0708 218.071 90.8727 218.052L92.9638 218.496C99.6381 221.531 100.082 229.593 99.5456 235.972C99.2433 239.562 98.4538 245.113 94.2283 246.057C91.397 246.692 89.1702 245.268 87.6281 242.998C87.2765 242.479 85.3642 238.877 85.3457 238.476C85.3334 238.112 85.8515 235.614 86.0057 235.256C86.2093 234.775 86.8323 234.886 87.1778 235.194C87.3505 235.349 87.9612 236.397 88.1277 236.681C89.0653 238.297 90.4779 242.59 92.5444 242.862C95.0673 243.195 95.752 239.58 96.0295 237.748C96.6526 233.695 96.7759 226.935 94.1975 223.536C91.3045 219.73 87.9303 222.247 84.2107 221.722C79.1402 221.007 76.7777 215.702 71.5653 219.822C68.3947 222.333 64.9588 230.297 64.7491 234.238C64.6196 236.675 66.1185 238.149 68.4749 236.922C71.5036 235.349 76.1793 229.544 78.7701 228.903C79.9359 228.613 80.9846 228.933 81.8729 229.729C82.465 230.26 82.7364 231.086 83.1991 231.573C83.3039 231.684 83.2916 231.74 83.4767 231.691C84.0812 231.53 85.5925 229.717 86.2648 229.34C86.4745 229.02 85.9132 228.828 85.7652 228.551C85.3951 227.866 85.685 227.391 86.419 227.268C87.0852 227.157 89.3984 227.138 90.0893 227.218C90.7802 227.299 91.0947 227.484 91.1318 228.224C90.774 229.081 90.7987 232.061 90.1571 232.548C89.3244 233.177 88.5842 231.66 88.4608 231.709C86.6041 233.412 84.5438 236.076 81.7125 234.633C80.8489 234.189 80.4233 233.467 79.9298 232.684C79.7632 232.425 79.9051 232.122 79.3623 232.258C77.45 233.887 75.6365 235.638 73.6873 237.23C71.1212 239.327 68.3083 241.751 64.78 240.216C62.5531 239.247 61.4058 237.07 61.4243 234.695C61.4243 234.047 61.5847 233.399 61.5353 232.776C61.7019 232.129 61.7759 231.45 61.9548 230.802C63.5709 224.881 68.3392 214.086 76.019 214.882L77.9929 215.301L77.9805 215.307Z" fill="#1E49F1"/>
</svg>
