<svg width="199" height="272" viewBox="0 0 199 272" fill="none" xmlns="http://www.w3.org/2000/svg">
<path d="M197.5 222.993L95.7248 270.332L2.50017 223.029L2.50018 23.5L197.5 23.5L197.5 222.993Z" fill="#96FEDA" stroke="#1FAB4F" stroke-width="3"/>
<rect x="1.5" y="1.5" width="196" height="43" fill="#96FEDA" stroke="#1FAB4F" stroke-width="3"/>
<path d="M178.263 115.206L120.675 81.6416C122.133 82.4881 122.743 84.3764 122.398 87.0561C121.364 95.1504 112.864 100.269 112.779 100.319L28.5177 149.11C26.2204 150.443 24.043 152.977 22.6896 155.897C22.5597 156.178 22.5847 156.443 22.7345 156.528L80.3221 190.092C80.1723 190.007 80.1474 189.742 80.2772 189.461C81.6306 186.541 83.8081 184.002 86.1054 182.674L170.372 133.883C170.452 133.838 178.957 128.719 179.991 120.62C180.33 117.935 179.721 116.052 178.268 115.206H178.263Z" fill="#DFC0FB" stroke="#0000F4" stroke-width="1.5" stroke-linecap="round" stroke-linejoin="round"/>
<path d="M165.053 131.97L107.465 98.4063C108.374 98.9372 109.643 99.0024 111.266 98.2961C111.93 98.0056 112.564 97.685 113.174 97.3344C115.541 95.962 117.444 94.1488 118.637 92.1002C119.601 90.4423 120.031 88.7694 119.876 87.2517C119.791 86.4052 119.371 85.7691 118.737 85.3984L176.325 118.962C176.959 119.333 177.379 119.969 177.464 120.816C177.613 122.328 177.184 124.006 176.225 125.664C175.031 127.713 173.129 129.531 170.761 130.898C170.157 131.249 169.518 131.57 168.854 131.86C167.23 132.566 165.962 132.501 165.053 131.97Z" fill="#AA51F6" stroke="#0000F4" stroke-width="1.5" stroke-linecap="round" stroke-linejoin="round"/>
<path d="M166.646 126.275L109.059 92.711C108.924 92.6308 108.889 92.4004 108.994 92.135C110.352 88.6939 112.345 86.1094 114.602 84.8021C115.062 84.5366 115.536 84.3212 116.015 84.1659C117.314 83.7402 118.492 83.8304 119.346 84.3312L176.934 117.895C176.075 117.394 174.902 117.304 173.603 117.73C173.124 117.885 172.649 118.101 172.19 118.366C169.932 119.673 167.935 122.258 166.581 125.699C166.476 125.959 166.511 126.195 166.646 126.275Z" fill="#8359E8" stroke="#0000F4" stroke-width="1.5" stroke-linecap="round" stroke-linejoin="round"/>
<path d="M121.314 80.5693C121.04 80.409 120.735 80.2788 120.41 80.1886C118.662 79.6827 116.41 80.2137 114.093 81.551C112.365 82.5528 110.602 84.0053 108.989 85.8235C106.002 89.1844 104.449 93.2065 104.933 96.327C105.163 97.8296 105.832 98.8965 106.811 99.4675L164.399 133.032C163.425 132.466 162.756 131.394 162.521 129.891C162.037 126.771 163.59 122.748 166.576 119.388C168.189 117.569 169.952 116.117 171.68 115.115C173.993 113.773 176.245 113.247 177.998 113.753C178.328 113.848 178.627 113.973 178.902 114.133L121.314 80.5693Z" fill="#EAD7FC" stroke="#0000F4" stroke-width="1.5" stroke-linecap="round" stroke-linejoin="round"/>
<path d="M171.68 115.115C173.993 113.773 176.245 113.247 177.998 113.753C180.295 114.414 181.309 116.728 180.855 120.279C179.706 129.29 170.472 134.835 170.377 134.89L86.1103 183.686C84.0927 184.853 82.1749 187.082 80.9913 189.651C80.9064 189.837 80.7716 189.987 80.6367 190.062C80.5468 190.117 80.452 190.137 80.377 190.112C80.1823 190.057 80.1373 189.766 80.2822 189.461C81.6356 186.541 83.813 184.001 86.1103 182.674L170.377 133.883C170.457 133.838 178.962 128.719 179.996 120.62C180.395 117.494 179.501 115.451 177.478 114.87C175.88 114.409 173.818 114.895 171.695 116.122C170.097 117.049 168.459 118.396 166.961 120.084C164.304 123.074 162.97 126.49 163.395 129.225C163.755 131.564 165.587 133.282 168.859 131.855C169.523 131.564 170.157 131.244 170.766 130.893C173.134 129.521 175.036 127.707 176.23 125.659C177.194 124.001 177.623 122.328 177.468 120.81C177.284 118.987 175.546 118.131 173.423 118.827C173.019 118.962 172.614 119.142 172.225 119.368C170.272 120.5 168.529 122.764 167.34 125.779C167.26 125.984 167.116 126.155 166.966 126.245C166.891 126.29 166.811 126.31 166.741 126.3C166.531 126.28 166.461 126.009 166.586 125.699C167.945 122.258 169.937 119.673 172.195 118.366C172.654 118.1 173.129 117.885 173.608 117.73C176.085 116.923 178.123 117.98 178.342 120.199C178.522 121.992 177.988 124.061 176.844 126.024C175.486 128.358 173.363 130.402 170.751 131.91C170.112 132.28 169.443 132.616 168.754 132.922C165.527 134.329 163.025 133.112 162.526 129.886C162.042 126.766 163.595 122.744 166.581 119.383C168.194 117.565 169.957 116.112 171.685 115.11L171.68 115.115Z" fill="#989CF6" stroke="#0000F4" stroke-width="1.5" stroke-linecap="round" stroke-linejoin="round"/>
<path d="M48.7341 139.152C48.7341 140.214 47.8201 141.226 46.2669 141.807L26.2603 149.275C24.7821 149.826 22.9392 149.911 21.3411 149.496L8.59101 146.19C7.59218 145.929 7.00287 145.353 7.00287 144.752V146.405C7.00786 147.011 7.60217 147.587 8.596 147.843L21.3461 151.148C22.9442 151.564 24.7871 151.479 26.2653 150.928L46.2719 143.46C47.8301 142.879 48.744 141.867 48.7391 140.805V139.152H48.7341Z" fill="#1E48F1" stroke="#0000F4" stroke-width="1.5" stroke-linecap="round" stroke-linejoin="round"/>
<path d="M19.9977 145.83L33.8315 127.222C34.1761 126.761 35.085 126.546 35.8691 126.751L37.732 127.232C38.2014 127.352 38.536 127.603 38.6259 127.903L42.3316 139.959C42.3466 140.015 42.3565 140.07 42.3565 140.125V138.472C42.3515 138.417 42.3416 138.362 42.3266 138.306L38.6209 126.25C38.531 125.95 38.1964 125.699 37.727 125.579L35.8641 125.098C35.085 124.898 34.1711 125.108 33.8265 125.569L19.9927 144.177C19.9028 144.297 19.8629 144.422 19.8629 144.547V146.2C19.8629 146.075 19.9078 145.95 19.9977 145.83Z" fill="#5EC6D2" stroke="#0000F4" stroke-width="1.5" stroke-linecap="round" stroke-linejoin="round"/>
<path d="M48.6492 138.601C49.0337 139.854 48.0898 141.126 46.267 141.807L26.2604 149.275C24.7821 149.826 22.9393 149.911 21.3411 149.495L8.59104 146.19C7.24261 145.839 6.63333 144.907 7.22763 144.111L25.1017 120.069C25.696 119.267 27.2692 118.902 28.6176 119.252L41.3677 122.558C42.9658 122.974 44.1095 123.83 44.4241 124.847L48.6492 138.601ZM41.6274 139.252C42.1668 139.052 42.4414 138.681 42.3266 138.311L38.6209 126.255C38.531 125.954 38.1964 125.704 37.727 125.583L35.8641 125.103C35.085 124.902 34.1711 125.113 33.8265 125.573L19.9927 144.181C19.6481 144.642 20.0027 145.183 20.7818 145.383L22.6446 145.864C23.114 145.984 23.6534 145.959 24.0829 145.799L41.6224 139.247" fill="#8359E8"/>
<path d="M41.6274 139.252C42.1668 139.052 42.4414 138.681 42.3266 138.311L38.6209 126.255C38.531 125.954 38.1964 125.704 37.727 125.583L35.8641 125.103C35.085 124.902 34.1711 125.113 33.8265 125.573L19.9927 144.181C19.6481 144.642 20.0027 145.183 20.7818 145.383L22.6446 145.864C23.114 145.984 23.6534 145.959 24.0829 145.799L41.6224 139.247M48.6492 138.601C49.0337 139.854 48.0898 141.126 46.267 141.807L26.2604 149.275C24.7821 149.826 22.9393 149.911 21.3411 149.495L8.59104 146.19C7.24261 145.839 6.63333 144.907 7.22763 144.111L25.1017 120.069C25.696 119.267 27.2692 118.902 28.6176 119.252L41.3677 122.558C42.9658 122.974 44.1095 123.83 44.4241 124.847L48.6492 138.601Z" stroke="#0000F4" stroke-width="1.5" stroke-linecap="round" stroke-linejoin="round"/>
<path d="M45.6327 142.042C45.6327 142.042 43.7 141.151 42.7911 140.099C41.8821 139.047 42.3266 138.266 43.5402 137.484C45.1183 136.473 46.9063 136.107 47.5805 136.252L45.6327 142.042Z" fill="#65A0F5" stroke="#0000F4" stroke-width="1.5" stroke-linecap="round" stroke-linejoin="round"/>
<path d="M45.6327 142.042C45.6327 142.042 45.7326 138.386 47.0161 136.633C48.1248 135.115 48.6492 138.601 48.6492 138.601C48.6492 138.601 48.8639 139.588 48.3445 140.339C47.5255 141.521 45.6377 142.042 45.6377 142.042H45.6327Z" fill="#0000F5" stroke="#0000F4" stroke-width="1.5" stroke-linecap="round" stroke-linejoin="round"/>
<path d="M54.2577 139.043L54.1578 142.91L52.23 145.61L52.3249 141.743L54.2577 139.043Z" fill="#65A0F5" stroke="#0000F4" stroke-width="1.5" stroke-linecap="round" stroke-linejoin="round"/>
<path d="M52.3249 141.742L52.23 145.609L46.1971 143.525L46.292 139.658L52.3249 141.742Z" fill="#7EEFF9" stroke="#0000F4" stroke-width="1.5" stroke-linecap="round" stroke-linejoin="round"/>
<path d="M54.2577 139.043L52.3249 141.743L46.292 139.659L48.2197 136.954L54.2577 139.043Z" fill="#B6FCE1" stroke="#0000F4" stroke-width="1.5" stroke-linecap="round" stroke-linejoin="round"/>
<path d="M58.9471 172.616C55.2515 172.616 52.6545 171.689 51.2661 170.557C49.1386 168.829 48.3595 166.41 49.1236 163.931C50.2923 160.139 55.5711 155.391 66.6082 154.479C71.043 154.113 76.5066 154.564 82.2998 155.04C85.0816 155.27 87.9482 155.506 90.7849 155.656C91.3692 155.19 91.9585 154.709 92.5478 154.224C100.603 147.552 109.688 143.981 119.287 143.535C119.636 141.697 119.217 140.184 118.013 139.102C115.116 136.492 108.479 136.878 105.108 139.848C99.27 144.992 88.8072 150.903 76.9661 152.065C71.7771 152.571 70.6335 150.522 70.4137 149.25C69.7495 145.378 76.5016 139.367 87.6186 136.593C95.814 134.549 99.7894 130.943 99.4847 128.438C99.265 126.645 96.8328 125.483 93.282 125.483C87.4788 125.483 82.0351 130.567 76.7713 135.486C73.1405 138.882 69.7096 142.087 66.2686 143.49C59.8311 146.119 55.4762 144.607 53.5984 143.605C53.0291 143.299 52.8693 142.553 53.2788 142.052C53.5884 141.677 54.1178 141.566 54.5423 141.797C56.0056 142.588 59.7262 143.951 65.4945 141.596C68.5859 140.334 71.882 137.254 75.3729 133.993C80.9264 128.804 86.6647 123.439 93.277 123.439C98.9154 123.439 101.228 125.894 101.507 128.193C101.892 131.348 98.6157 135.966 88.108 138.586C77.2757 141.286 72.0618 146.821 72.4214 148.904C72.5812 149.841 74.2443 150.272 76.7613 150.026C88.118 148.914 98.1513 143.244 103.755 138.311C107.945 134.619 115.681 134.258 119.371 137.579C120.5 138.596 121.824 140.469 121.379 143.49C129.55 143.5 138.06 145.749 146.615 150.257L146.999 150.457L146.055 152.275L145.666 152.07C137.241 147.632 128.865 145.468 120.845 145.558C120.385 146.831 119.636 148.263 118.512 149.866C113.234 157.394 102.501 158.266 91.4441 157.74C81.7804 165.373 72.8958 170.132 65.0101 171.895C62.7427 172.401 60.7151 172.616 58.9422 172.616H58.9471ZM70.199 156.392C68.9954 156.392 67.8517 156.432 66.773 156.518C57.394 157.294 52.1301 161.101 51.0714 164.532C50.552 166.225 51.0614 167.757 52.5496 168.964C54.1577 170.272 58.2729 171.304 64.5706 169.896C71.5524 168.333 79.6929 164.101 88.3328 157.559C86.2452 157.419 84.1676 157.249 82.125 157.079C77.86 156.728 73.7698 156.387 70.194 156.387L70.199 156.392ZM93.8763 155.781C103.515 156.042 112.49 154.91 116.849 148.689C117.599 147.617 118.188 146.6 118.607 145.643C109.728 146.22 101.343 149.605 93.8763 155.781Z" fill="#65A0F5" stroke="#0000F4" stroke-width="1.5" stroke-linecap="round" stroke-linejoin="round"/>
<path d="M88.3378 157.56L90.7849 155.656" stroke="#0000F4" stroke-width="1.5" stroke-linecap="round" stroke-linejoin="round"/>
<path d="M91.4541 157.74L93.8763 155.781" stroke="#0000F4" stroke-width="1.5" stroke-linecap="round" stroke-linejoin="round"/>
<path d="M118.607 145.644L120.85 145.559" stroke="#0000F4" stroke-width="1.5" stroke-linecap="round" stroke-linejoin="round"/>
<path d="M119.287 143.534L121.384 143.484" stroke="#0000F4" stroke-width="1.5" stroke-linecap="round" stroke-linejoin="round"/>
<path d="M153.132 153.228V154.144L148.572 156.799V155.882L153.132 153.228Z" fill="white" stroke="#0000F4" stroke-width="1.5" stroke-linecap="round" stroke-linejoin="round"/>
<path d="M148.572 153.819V156.799L142.589 153.338L142.594 150.353L148.572 153.819Z" fill="#7EEFF9" stroke="#0000F4" stroke-width="1.5" stroke-linecap="round" stroke-linejoin="round"/>
<path d="M151.948 151.99L148.572 153.819L142.594 150.353L145.97 148.529L151.948 151.99Z" fill="#B6FCE1" stroke="#0000F4" stroke-width="1.5" stroke-linecap="round" stroke-linejoin="round"/>
<path d="M190.224 158.091L159.01 176.283C157.971 176.889 156.288 176.889 155.239 176.283L145.356 170.558C144.352 169.977 143.798 169.19 143.803 168.379V170.047C143.798 170.853 144.347 171.64 145.351 172.226L155.234 177.951C156.278 178.557 157.966 178.557 159.005 177.951L190.219 159.759C190.733 159.458 190.993 159.068 190.993 158.672V157.004C190.993 157.4 190.738 157.79 190.224 158.091Z" fill="#1E48F1" stroke="#0000F4" stroke-width="1.5" stroke-linecap="round" stroke-linejoin="round"/>
<path d="M153.986 157.62C154.106 157.259 154.59 156.979 155.205 156.909L175.521 154.64C176.02 154.585 176.54 154.675 176.904 154.885L178.352 155.722C178.657 155.897 178.807 156.127 178.807 156.358V154.69C178.812 154.46 178.662 154.229 178.357 154.054L176.909 153.217C176.545 153.007 176.03 152.917 175.526 152.972L155.21 155.241C154.59 155.311 154.106 155.592 153.991 155.952L150.15 167.763C150.13 167.818 150.125 167.873 150.125 167.928V169.596C150.125 169.541 150.125 169.486 150.145 169.431L153.986 157.62Z" fill="#5EC6D2" stroke="#0000F4" stroke-width="1.5" stroke-linecap="round" stroke-linejoin="round"/>
<path d="M190.214 155.897C191.257 156.503 191.262 157.485 190.224 158.086L159.01 176.278C157.971 176.884 156.288 176.884 155.239 176.278L145.356 170.553C144.117 169.837 143.568 168.81 143.893 167.813L148.273 154.345C148.672 153.117 150.32 152.156 152.433 151.92L175.606 149.331C177.319 149.14 179.087 149.456 180.325 150.172L190.209 155.897H190.214ZM154.206 169.401L178.362 155.321C178.962 154.971 178.957 154.405 178.357 154.054L176.909 153.218C176.545 153.007 176.03 152.917 175.526 152.972L155.21 155.241C154.59 155.311 154.106 155.592 153.991 155.952L150.15 167.763C150.056 168.054 150.215 168.354 150.58 168.565L152.028 169.401C152.633 169.752 153.606 169.752 154.211 169.401" fill="#8359E8"/>
<path d="M154.206 169.401L178.362 155.321C178.962 154.971 178.957 154.405 178.357 154.054L176.909 153.218C176.545 153.007 176.03 152.917 175.526 152.972L155.21 155.241C154.59 155.311 154.106 155.592 153.991 155.952L150.15 167.763C150.056 168.054 150.215 168.354 150.58 168.565L152.028 169.401C152.633 169.752 153.606 169.752 154.211 169.401M190.214 155.897C191.257 156.503 191.262 157.485 190.224 158.086L159.01 176.278C157.971 176.884 156.288 176.884 155.239 176.278L145.356 170.553C144.117 169.837 143.568 168.81 143.893 167.813L148.273 154.345C148.672 153.117 150.32 152.156 152.433 151.92L175.606 149.331C177.319 149.14 179.087 149.456 180.325 150.172L190.209 155.897H190.214Z" stroke="#0000F4" stroke-width="1.5" stroke-linecap="round" stroke-linejoin="round"/>
<path d="M147.983 155.241C147.983 155.241 152.433 155.997 153.971 155.241C155.509 154.485 152.797 151.75 151.144 150.513C149.486 149.276 147.174 150.929 147.988 155.241H147.983Z" fill="#65A0F5" stroke="#0000F4" stroke-width="1.5" stroke-linecap="round" stroke-linejoin="round"/>
<path d="M123.567 135.196L123.527 120.576L94.7303 103.791L94.7702 118.412C94.7702 118.898 94.94 119.238 95.2147 119.393L124.011 136.178C123.736 136.018 123.567 135.677 123.567 135.196Z" fill="#F3C254" stroke="#0000F4" stroke-width="1.5" stroke-linecap="round" stroke-linejoin="round"/>
<path d="M111.256 92.9811C110.976 92.8208 110.592 92.8409 110.167 93.0863L96.2585 101.14L125.055 117.925L138.964 109.871C139.388 109.625 139.773 109.6 140.052 109.766L111.256 92.9811Z" fill="#F3C254" stroke="#0000F4" stroke-width="1.5" stroke-linecap="round" stroke-linejoin="round"/>
<path d="M123.527 120.575L94.7303 103.79C94.7303 102.818 95.4095 101.631 96.2535 101.146L125.05 117.93C124.206 118.421 123.522 119.603 123.527 120.575Z" fill="#FCFBD6" stroke="#0000F4" stroke-width="1.5" stroke-linecap="round" stroke-linejoin="round"/>
<path d="M138.964 109.871C139.808 109.38 140.497 109.776 140.497 110.748L140.537 125.368C140.537 126.34 139.858 127.527 139.014 128.013L125.105 136.067C124.261 136.558 123.572 136.162 123.572 135.191L123.532 120.57C123.532 119.598 124.211 118.411 125.055 117.925L138.964 109.871Z" fill="#EF9C87" stroke="#0000F4" stroke-width="1.5" stroke-linecap="round" stroke-linejoin="round"/>
<path d="M104.284 146.936L104.244 132.316L75.4478 115.531L75.4878 130.152C75.4878 130.638 75.6576 130.978 75.9322 131.134L104.729 147.918C104.454 147.758 104.284 147.417 104.284 146.936Z" fill="#F3C254" stroke="#0000F4" stroke-width="1.5" stroke-linecap="round" stroke-linejoin="round"/>
<path d="M91.9685 104.722C91.6888 104.562 91.3042 104.582 90.8797 104.828L76.971 112.882L105.767 129.666L119.676 121.612C120.101 121.367 120.485 121.342 120.765 121.507L91.9685 104.722Z" fill="#F3C254" stroke="#0000F4" stroke-width="1.5" stroke-linecap="round" stroke-linejoin="round"/>
<path d="M104.239 132.315L75.4428 115.53C75.4428 114.559 76.122 113.372 76.966 112.886L105.762 129.67C104.918 130.161 104.234 131.343 104.239 132.315Z" fill="#FCFBD6" stroke="#0000F4" stroke-width="1.5" stroke-linecap="round" stroke-linejoin="round"/>
<path d="M119.676 121.612C120.52 121.121 121.209 121.517 121.209 122.489L121.249 137.11C121.249 138.081 120.57 139.268 119.726 139.754L105.817 147.808C104.973 148.299 104.284 147.904 104.284 146.932L104.244 132.311C104.244 131.339 104.923 130.152 105.767 129.666L119.676 121.612Z" fill="#EF9C87" stroke="#0000F4" stroke-width="1.5" stroke-linecap="round" stroke-linejoin="round"/>
</svg>
