<svg width="196" height="276" viewBox="0 0 196 276" fill="none" xmlns="http://www.w3.org/2000/svg">
<path d="M194.5 45L1.5 45L1.5 1.49999L194.5 1.5L194.5 45ZM194.5 48L194.5 273.888L92.8945 238.418L92.3701 238.235L91.8535 238.437L1.49999 273.803L1.5 48L194.5 48Z" fill="#3DF0FA" stroke="#17C2CE" stroke-width="3"/>
<path d="M129.569 206.382C126.679 206.382 123.557 205.98 120.277 205.18C108.008 202.192 97.5953 194.493 97.0642 188.014C96.9942 187.168 97.0934 186.362 97.3502 185.615L108.516 153.555C108.58 153.374 108.749 153.263 108.93 153.263C108.977 153.263 109.029 153.269 109.076 153.286C109.304 153.368 109.426 153.613 109.345 153.846C109.123 154.477 109.047 155.16 109.105 155.883C109.607 162.018 119.722 169.366 131.652 172.273C134.862 173.055 137.915 173.452 140.734 173.452C146.664 173.452 150.826 171.666 151.871 168.683L152.699 168.969L141.534 201.03C140.366 204.386 135.896 206.388 129.574 206.388L129.569 206.382Z" fill="#65A0F5"/>
<path d="M108.936 153.694C108.697 154.371 108.609 155.112 108.673 155.912C109.193 162.227 119.436 169.739 131.553 172.693C134.868 173.498 137.979 173.883 140.74 173.883C146.799 173.883 151.164 172.045 152.291 168.817L141.125 200.878C139.999 204.106 135.633 205.944 129.575 205.944C126.814 205.944 123.703 205.565 120.388 204.753C108.271 201.806 98.0273 194.288 97.5078 187.973C97.4436 187.173 97.537 186.432 97.7705 185.755L108.936 153.694ZM108.107 153.402L96.9417 185.463C96.6615 186.269 96.5564 187.132 96.6323 188.043C97.1868 194.808 107.529 202.518 120.177 205.6C123.487 206.405 126.645 206.814 129.575 206.814C136.088 206.814 140.717 204.701 141.948 201.164L153.102 169.144C153.143 169.039 153.166 168.928 153.166 168.811C153.166 168.327 152.775 167.936 152.291 167.936C151.9 167.936 151.573 168.187 151.456 168.543C150.47 171.333 146.466 173.002 140.74 173.002C137.956 173.002 134.933 172.611 131.757 171.835C120.195 169.021 110.022 161.69 109.543 155.836C109.491 155.177 109.561 154.546 109.759 153.98L108.93 153.694L108.101 153.408L108.107 153.402Z" fill="#0000F4"/>
<path d="M141.119 200.878L152.285 168.817C150.651 173.516 142.135 175.273 131.547 172.693C130.94 172.547 130.339 172.384 129.744 172.214L121.181 196.793C120.195 199.629 116.693 201.392 111.749 201.777C114.428 202.997 117.341 204.024 120.376 204.76C130.958 207.339 139.473 205.583 141.114 200.884L141.119 200.878Z" fill="#3072C1"/>
<path d="M140.74 174.315C137.851 174.315 134.722 173.913 131.448 173.113C119.179 170.125 108.767 162.426 108.236 155.947C108.096 154.261 108.603 152.784 109.736 151.552C111.732 149.387 115.549 148.19 120.487 148.19C123.376 148.19 126.504 148.593 129.779 149.393C142.047 152.381 152.46 160.086 152.991 166.564C153.131 168.251 152.624 169.728 151.491 170.959C149.495 173.125 145.678 174.321 140.74 174.321V174.315Z" fill="#1E49F1"/>
<path d="M120.481 148.628C123.242 148.628 126.353 149.008 129.668 149.819C141.785 152.767 152.028 160.284 152.548 166.6C152.927 171.187 148.065 173.884 140.734 173.884C137.974 173.884 134.863 173.504 131.547 172.693C119.43 169.746 109.187 162.228 108.668 155.913C108.288 151.325 113.15 148.628 120.481 148.628ZM120.481 147.753C115.421 147.753 111.493 148.996 109.409 151.255C108.206 152.562 107.646 154.197 107.792 155.983C108.347 162.747 118.689 170.458 131.337 173.539C134.647 174.345 137.804 174.753 140.734 174.753C145.795 174.753 149.723 173.51 151.806 171.251C153.009 169.944 153.569 168.31 153.417 166.524C152.863 159.759 142.52 152.043 129.872 148.967C126.563 148.161 123.405 147.753 120.481 147.753Z" fill="#0000F4"/>
<path d="M140.191 172.342C137.559 172.342 134.717 171.974 131.734 171.251C120.574 168.531 111.096 161.515 110.611 155.614C110.547 154.838 110.634 154.103 110.874 153.42L127.251 106.394L128.08 106.68C127.882 107.246 127.812 107.864 127.864 108.518C128.32 114.075 137.501 120.74 148.322 123.378C151.234 124.085 154.007 124.446 156.569 124.446C161.939 124.446 165.709 122.835 166.649 120.139L167.478 120.425L151.1 167.451C150.032 170.515 145.952 172.348 140.191 172.348V172.342Z" fill="#65A0F5"/>
<path d="M127.672 106.534C127.456 107.153 127.374 107.824 127.432 108.554C127.905 114.291 137.215 121.12 148.223 123.799C151.234 124.534 154.065 124.879 156.575 124.879C162.079 124.879 166.048 123.209 167.069 120.274L150.692 167.3C149.67 170.23 145.701 171.905 140.197 171.905C137.687 171.905 134.862 171.555 131.845 170.825C120.837 168.146 111.527 161.317 111.055 155.58C110.996 154.856 111.078 154.179 111.294 153.56L127.672 106.534ZM126.843 106.248L110.465 153.274C110.208 154.015 110.109 154.815 110.179 155.65C110.687 161.831 120.113 168.87 131.635 171.677C134.647 172.413 137.53 172.786 140.191 172.786C146.238 172.786 150.365 170.895 151.515 167.597L167.881 120.618C167.921 120.513 167.945 120.402 167.945 120.285C167.945 119.818 167.583 119.439 167.128 119.41C167.11 119.41 167.087 119.41 167.069 119.41C167.017 119.41 166.964 119.41 166.912 119.421C166.789 119.445 166.672 119.491 166.567 119.562C166.462 119.637 166.369 119.731 166.305 119.853C166.275 119.906 166.252 119.958 166.235 120.011C165.347 122.515 161.74 124.009 156.575 124.009C154.048 124.009 151.31 123.653 148.433 122.953C137.962 120.402 128.74 113.777 128.308 108.483C128.261 107.894 128.325 107.334 128.501 106.826L127.672 106.54L126.843 106.254V106.248Z" fill="#0000F4"/>
<path d="M155.005 124.838L140.542 166.366C139.649 168.922 136.52 170.516 132.084 170.883C141.592 173.142 149.215 171.537 150.686 167.305L167.063 120.279C165.949 123.484 161.314 125.182 154.999 124.838H155.005Z" fill="#3072C1"/>
<path d="M156.972 126.531C154.083 126.531 150.954 126.128 147.686 125.328C135.417 122.34 125.004 114.641 124.473 108.157C124.403 107.31 124.502 106.505 124.759 105.758C124.759 105.758 132.207 84.3724 132.213 84.3665C135.989 72.9967 146.39 65.3623 158.116 65.3623C158.489 65.3623 158.863 65.3681 159.242 65.3856C164.332 65.5899 169.217 68.555 172.655 73.522C177.902 81.098 179.046 91.6448 175.708 101.725L168.931 121.173C167.764 124.529 163.293 126.531 156.972 126.531Z" fill="#7EEFF9"/>
<path d="M158.11 65.8003C158.478 65.8003 158.845 65.8061 159.219 65.8236C171.68 66.3256 181.34 83.2928 175.287 101.585L168.517 121.027C167.39 124.255 163.024 126.093 156.972 126.093C154.211 126.093 151.1 125.714 147.785 124.902C135.668 121.949 125.425 114.437 124.905 108.122C124.841 107.322 124.934 106.581 125.168 105.904L132.615 84.5302C132.615 84.5302 132.615 84.536 132.615 84.5418C136.106 73.9891 145.9 65.8003 158.11 65.8003ZM158.11 64.9248C146.203 64.9248 135.633 72.6817 131.792 84.2267V84.2383L124.345 105.612C124.065 106.418 123.96 107.282 124.036 108.192C124.59 114.957 134.933 122.673 147.581 125.749C150.89 126.554 154.048 126.963 156.972 126.963C163.585 126.963 168.091 124.902 169.346 121.313L176.116 101.871C179.496 91.6451 178.334 80.9581 173.011 73.2654C169.497 68.1875 164.484 65.1524 159.254 64.9423C158.875 64.9248 158.489 64.9189 158.11 64.9189V64.9248Z" fill="#0000F4"/>
<path d="M156.972 126.531C154.083 126.531 150.954 126.128 147.686 125.328C147.271 125.229 146.857 125.118 146.448 125.007L146.057 124.896C145.777 124.821 145.497 124.739 145.217 124.657L144.773 124.517C144.511 124.435 144.254 124.354 143.997 124.272L143.553 124.126C143.291 124.038 143.028 123.945 142.771 123.852L142.369 123.706C142.077 123.601 141.791 123.49 141.505 123.379L141.207 123.262C140.407 122.947 139.631 122.614 138.89 122.27C138.493 122.083 138.137 121.914 137.781 121.745L137.612 121.663C137.302 121.505 136.993 121.354 136.689 121.19L136.508 121.091C136.205 120.927 135.901 120.764 135.604 120.595L135.464 120.519C135.131 120.332 134.804 120.14 134.477 119.941C132.75 118.896 131.197 117.782 129.855 116.626C129.697 116.492 129.656 116.258 129.761 116.077C129.843 115.937 129.989 115.855 130.141 115.855C130.187 115.855 130.234 115.861 130.281 115.879C131.606 116.322 132.936 116.708 134.232 117.029C137.437 117.811 140.495 118.208 143.314 118.208C149.244 118.208 153.406 116.422 154.445 113.439L161.215 93.9971C164.507 84.0455 163.235 73.3352 157.9 66.0686C157.801 65.9343 157.789 65.7592 157.865 65.6133C157.941 65.4674 158.093 65.374 158.256 65.374C158.583 65.374 158.91 65.374 159.237 65.3915C164.326 65.5958 169.211 68.5608 172.649 73.5279C177.896 81.1039 179.04 91.6507 175.702 101.731L168.925 121.178C167.758 124.535 163.287 126.537 156.966 126.537L156.972 126.531Z" fill="#5EC6D2"/>
<path d="M158.256 65.8062C158.577 65.8062 158.898 65.8062 159.219 65.8237C171.68 66.3256 181.34 83.2928 175.287 101.585L168.517 121.027C167.39 124.255 163.024 126.093 156.972 126.093C154.211 126.093 151.1 125.714 147.785 124.903C147.371 124.803 146.962 124.698 146.559 124.587C146.431 124.552 146.302 124.511 146.168 124.476C145.888 124.401 145.614 124.319 145.339 124.237C145.193 124.19 145.042 124.144 144.896 124.103C144.639 124.021 144.382 123.939 144.125 123.858C143.979 123.811 143.833 123.759 143.688 123.712C143.425 123.624 143.168 123.531 142.911 123.443C142.777 123.397 142.649 123.35 142.514 123.297C142.228 123.192 141.942 123.081 141.662 122.976C141.563 122.936 141.464 122.901 141.365 122.86C140.582 122.55 139.818 122.223 139.071 121.879C139.059 121.873 139.047 121.867 139.03 121.862C138.674 121.698 138.324 121.529 137.973 121.36C137.915 121.33 137.863 121.301 137.804 121.272C137.495 121.12 137.191 120.963 136.894 120.805C136.835 120.776 136.771 120.741 136.713 120.712C136.409 120.548 136.112 120.385 135.814 120.221C135.767 120.198 135.726 120.169 135.68 120.146C135.347 119.959 135.026 119.766 134.705 119.574C134.705 119.574 134.699 119.574 134.693 119.568C132.995 118.541 131.466 117.443 130.141 116.299C131.442 116.737 132.773 117.128 134.127 117.455C137.442 118.26 140.553 118.646 143.314 118.646C149.367 118.646 153.738 116.807 154.859 113.579L161.63 94.1374C165.277 83.1002 163.205 72.5534 158.25 65.8062M158.256 64.9307C157.929 64.9307 157.626 65.1174 157.474 65.4093C157.322 65.7069 157.351 66.0571 157.55 66.3256C162.809 73.4872 164.052 84.0399 160.801 93.8689L154.036 113.299C153.061 116.101 149.051 117.776 143.32 117.776C140.536 117.776 137.512 117.385 134.343 116.614C133.059 116.299 131.74 115.92 130.427 115.476C130.333 115.447 130.24 115.43 130.146 115.43C129.837 115.43 129.545 115.593 129.388 115.873C129.178 116.235 129.259 116.696 129.574 116.97C130.934 118.144 132.504 119.276 134.244 120.327C134.582 120.531 134.915 120.723 135.248 120.916L135.347 120.969L135.388 120.992C135.685 121.161 135.995 121.325 136.304 121.494L136.339 121.511L136.485 121.587C136.789 121.751 137.104 121.908 137.413 122.06L137.483 122.095L137.588 122.148C137.944 122.323 138.3 122.492 138.662 122.661L138.703 122.679C139.456 123.023 140.244 123.362 141.044 123.677L141.23 123.753L141.341 123.794C141.627 123.904 141.919 124.015 142.211 124.12C142.322 124.161 142.439 124.202 142.549 124.243L142.614 124.266C142.876 124.36 143.139 124.453 143.402 124.541C143.553 124.593 143.699 124.64 143.851 124.692C144.108 124.78 144.37 124.862 144.633 124.943L144.732 124.973C144.849 125.008 144.966 125.043 145.083 125.083C145.363 125.165 145.643 125.247 145.929 125.329L146.069 125.369C146.151 125.393 146.238 125.416 146.32 125.439C146.734 125.55 147.149 125.661 147.569 125.76C150.878 126.566 154.036 126.975 156.96 126.975C163.573 126.975 168.079 124.914 169.334 121.325L176.104 101.883C179.484 91.6568 178.322 80.9698 172.999 73.2771C169.486 68.1992 164.472 65.1641 159.242 64.954C158.91 64.9423 158.577 64.9365 158.244 64.9365L158.256 64.9307Z" fill="#0000F4"/>
<path d="M164.828 102.665C161.956 102.665 158.875 102.268 155.67 101.491C143.758 98.5905 133.257 90.8161 132.738 84.5125C132.61 82.9307 133.082 81.5416 134.145 80.3918C136.059 78.3139 139.777 77.1758 144.621 77.1758C147.551 77.1758 150.727 77.5843 154.048 78.3956C166.229 81.3607 176.554 88.8725 177.073 95.1352C177.202 96.7286 176.717 98.1411 175.632 99.3201C173.641 101.48 169.807 102.67 164.828 102.67V102.665Z" fill="white"/>
<path d="M144.627 77.6079C147.429 77.6079 150.598 77.999 153.948 78.8161C165.738 81.6878 176.134 89.0186 176.641 95.1646C177.009 99.6239 172.071 102.227 164.834 102.227C162.091 102.227 159.02 101.853 155.781 101.066C144.003 98.1997 133.689 90.6237 133.182 84.4777C132.82 80.0827 137.577 77.6079 144.627 77.6079ZM144.627 76.7324C139.66 76.7324 135.826 77.9289 133.829 80.0943C132.697 81.3259 132.172 82.8668 132.312 84.5477C132.855 91.1315 143.291 98.9235 155.577 101.918C158.81 102.706 161.927 103.103 164.834 103.103C169.935 103.103 173.886 101.865 175.959 99.6122C177.114 98.3573 177.657 96.7931 177.517 95.0946C177.254 91.8786 174.599 88.3124 170.04 85.0497C165.645 81.9037 160.007 79.3881 154.159 77.964C150.802 77.1468 147.598 76.7324 144.633 76.7324H144.627Z" fill="#0000F4"/>
<path d="M164.886 101.643C162.114 101.643 159.015 101.246 155.915 100.487C146.279 98.1411 137.296 92.4795 134.553 87.0164C134.098 86.1117 133.835 85.2362 133.765 84.4191C133.643 82.9191 134.185 81.6408 135.376 80.6194C137.215 79.0494 140.489 78.1797 144.586 78.1797C147.417 78.1797 150.604 78.5941 153.808 79.3704C163.579 81.7517 172.614 87.3433 175.293 92.6722C175.731 93.5477 175.988 94.3998 176.058 95.1994C176.18 96.7228 175.62 98.0302 174.388 99.0808C172.462 100.727 169.089 101.637 164.892 101.637L164.886 101.643Z" fill="#C0E5F5"/>
<path d="M144.586 78.6294C147.341 78.6294 150.452 79.0205 153.709 79.8084C163.363 82.1606 172.276 87.6587 174.902 92.8826C175.317 93.7055 175.556 94.5052 175.62 95.2464C175.731 96.6239 175.223 97.8029 174.102 98.7601C172.211 100.377 168.908 101.206 164.886 101.206C162.184 101.206 159.161 100.832 156.02 100.068C146.501 97.7504 137.635 92.1822 134.944 86.8299C134.512 85.9778 134.267 85.1548 134.203 84.3902C134.092 83.0361 134.582 81.8804 135.662 80.9641C137.466 79.4232 140.658 78.6294 144.592 78.6294M144.586 77.7539C140.32 77.7539 137.04 78.6352 135.09 80.2987C133.806 81.396 133.193 82.8376 133.327 84.4661C133.398 85.3416 133.678 86.2696 134.162 87.2268C136.958 92.7892 146.063 98.55 155.816 100.926C158.945 101.69 162.085 102.093 164.892 102.093C169.194 102.093 172.667 101.147 174.674 99.4372C175.999 98.3048 176.63 96.834 176.496 95.1881C176.425 94.3301 176.151 93.4254 175.69 92.5032C172.958 87.0692 163.801 81.3785 153.919 78.9738C150.68 78.1858 147.458 77.7656 144.592 77.7656L144.586 77.7539Z" fill="#0000F4"/>
<path d="M156.972 126.531C154.083 126.531 150.954 126.128 147.686 125.328C135.417 122.34 125.004 114.641 124.473 108.157C124.403 107.31 124.502 106.505 124.759 105.758C124.759 105.758 132.207 84.3723 132.213 84.3665C132.446 83.6544 132.726 82.9248 133.041 82.1952C133.112 82.0318 133.275 81.9268 133.444 81.9268C133.497 81.9268 133.549 81.9384 133.602 81.9559C133.824 82.0435 133.935 82.2886 133.853 82.5104C133.643 83.1058 133.561 83.7478 133.619 84.4307C134.11 90.3899 144.306 97.8083 155.886 100.627C159.021 101.392 162.026 101.777 164.828 101.777C171.488 101.777 175.848 99.5944 176.198 96.0865C176.21 95.9523 176.285 95.8356 176.396 95.7597C176.466 95.713 176.548 95.6896 176.63 95.6896C176.676 95.6896 176.729 95.6955 176.776 95.713C176.98 95.783 177.114 95.9931 177.079 96.2033C176.764 98.071 176.303 99.9271 175.713 101.713L168.937 121.161C167.77 124.517 163.299 126.519 156.978 126.519L156.972 126.531Z" fill="#65A0F5"/>
<path d="M133.438 82.3706C133.211 83.0126 133.117 83.713 133.182 84.4718C133.689 90.6178 144.003 98.1938 155.781 101.06C159.021 101.848 162.091 102.221 164.828 102.221C171.523 102.221 176.245 99.9915 176.63 96.1335H176.647C176.344 97.9312 175.9 99.7522 175.293 101.585L168.523 121.027C167.396 124.255 163.03 126.093 156.978 126.093C154.217 126.093 151.106 125.714 147.791 124.902C135.674 121.949 125.43 114.437 124.911 108.122C124.847 107.322 124.94 106.581 125.174 105.904L132.621 84.5302C132.621 84.5302 132.621 84.536 132.621 84.5418C132.866 83.8064 133.141 83.0827 133.444 82.3706M133.438 81.4951C133.1 81.4951 132.773 81.6935 132.633 82.0262C132.318 82.7675 132.038 83.5087 131.792 84.2267V84.2383L124.345 105.612C124.065 106.418 123.96 107.282 124.036 108.192C124.59 114.957 134.933 122.673 147.581 125.749C150.89 126.554 154.048 126.963 156.972 126.963C163.585 126.963 168.091 124.902 169.346 121.313L176.116 101.871C176.717 100.05 177.184 98.1763 177.505 96.2794C177.575 95.8533 177.33 95.4389 176.916 95.3047C176.822 95.2755 176.729 95.258 176.636 95.258C176.466 95.258 176.303 95.3047 176.157 95.3981C175.935 95.544 175.783 95.7774 175.754 96.0459C175.433 99.2678 171.143 101.346 164.822 101.346C162.056 101.346 159.079 100.96 155.98 100.207C144.762 97.4759 134.518 90.0867 134.045 84.3959C133.993 83.7772 134.063 83.1936 134.256 82.6566C134.413 82.213 134.191 81.7227 133.748 81.5476C133.643 81.5068 133.538 81.4893 133.427 81.4893L133.438 81.4951Z" fill="#0000F4"/>
<path d="M176.566 97.0086C176.566 97.0086 176.513 97.0086 176.484 97.0027C176.245 96.9561 176.093 96.7343 176.134 96.495L176.145 96.4308C176.163 96.3199 176.18 96.209 176.192 96.0981C176.204 95.9638 176.28 95.8471 176.391 95.7712C176.461 95.7245 176.542 95.7012 176.624 95.7012C176.671 95.7012 176.723 95.707 176.77 95.7245C176.974 95.7946 177.108 96.0047 177.073 96.2148C177.062 96.3023 176.992 96.6525 176.992 96.6525C176.951 96.8627 176.77 97.0086 176.56 97.0086H176.566Z" fill="white"/>
<path d="M176.63 96.1333H176.647C176.63 96.2559 176.601 96.3726 176.583 96.4952C176.606 96.3785 176.624 96.2559 176.636 96.1333M176.577 96.4952C176.577 96.4952 176.566 96.5419 176.566 96.5652C176.566 96.5419 176.577 96.5186 176.577 96.4952ZM176.636 95.2637C176.466 95.2637 176.303 95.3104 176.157 95.4038C175.935 95.5497 175.783 95.7831 175.754 96.0516C175.743 96.1508 175.731 96.2442 175.713 96.3435L175.702 96.4193C175.614 96.8921 175.929 97.3474 176.402 97.4349C176.455 97.4466 176.507 97.4524 176.566 97.4524C176.98 97.4524 177.342 97.1606 177.424 96.7404L177.435 96.6645L177.453 96.5594C177.47 96.4719 177.488 96.3785 177.505 96.2909C177.575 95.8649 177.33 95.4504 176.916 95.3162C176.822 95.287 176.729 95.2695 176.636 95.2695V95.2637Z" fill="#0000F4"/>
<path d="M176.56 96.5708C176.56 96.5708 176.56 96.5883 176.56 96.5942C176.56 96.5825 176.56 96.5767 176.56 96.5708ZM176.56 96.5942C176.56 96.5942 176.548 96.6467 176.548 96.67C176.548 96.6467 176.56 96.6175 176.56 96.5942ZM176.56 95.6953C176.145 95.6953 175.778 95.9871 175.702 96.4074C175.702 96.4074 175.702 96.4249 175.702 96.4366V96.4658L175.684 96.5183C175.597 96.9911 175.906 97.4405 176.373 97.5339C176.431 97.5455 176.49 97.5514 176.542 97.5514C176.945 97.5514 177.313 97.2712 177.4 96.8568C177.406 96.8276 177.412 96.7926 177.418 96.7634C177.418 96.7576 177.418 96.7342 177.418 96.7342C177.505 96.2615 177.19 95.8062 176.717 95.7187C176.665 95.707 176.612 95.7012 176.56 95.7012V95.6953Z" fill="#0000F4"/>
<path d="M168.517 121.032L175.287 101.59C175.836 99.9385 176.239 98.2925 176.542 96.6758C175.573 101.228 168.213 103.277 158.875 101.707L152.443 120.174C151.707 122.275 149.594 123.787 146.536 124.587C146.95 124.698 147.365 124.809 147.785 124.908C158.367 127.488 166.877 125.731 168.517 121.032Z" fill="#3072C1"/>
<path d="M164.828 102.664C162.954 102.664 160.97 102.495 158.921 102.156C158.793 102.133 158.682 102.057 158.618 101.946C158.554 101.835 158.536 101.701 158.583 101.578L161.221 93.9964C162.505 90.1092 163.118 86.1461 163.042 82.2238C163.042 82.0721 163.112 81.9262 163.24 81.8445C163.31 81.7978 163.392 81.7744 163.48 81.7744C163.544 81.7744 163.608 81.7861 163.667 81.8153C171.575 85.6149 176.717 90.7162 177.079 95.1171C177.208 96.7105 176.723 98.1229 175.638 99.3019C173.647 101.462 169.813 102.652 164.834 102.652L164.828 102.664Z" fill="#B6FCE1"/>
<path d="M163.474 82.2183C170.851 85.7611 176.274 90.769 176.636 95.164C177.003 99.6232 172.065 102.226 164.828 102.226C163.013 102.226 161.052 102.063 158.991 101.724L161.63 94.1426C162.984 90.0452 163.55 86.0121 163.474 82.2183ZM163.474 81.3428C163.311 81.3428 163.141 81.3894 163.001 81.4828C162.744 81.6463 162.593 81.9323 162.598 82.2358C162.68 86.1055 162.073 90.0161 160.801 93.8683L158.163 101.433C158.075 101.678 158.104 101.946 158.238 102.168C158.373 102.39 158.594 102.542 158.851 102.582C160.923 102.927 162.937 103.096 164.828 103.096C169.929 103.096 173.881 101.859 175.953 99.6057C177.108 98.3508 177.651 96.7866 177.511 95.0881C177.138 90.5297 171.902 85.2942 163.853 81.4245C163.731 81.3661 163.602 81.3369 163.474 81.3369V81.3428Z" fill="#0000F4"/>
<path d="M164.898 101.643C163.118 101.643 161.227 101.485 159.266 101.17C159.137 101.147 159.026 101.071 158.962 100.96C158.898 100.849 158.88 100.715 158.927 100.592L161.221 93.997C162.377 90.495 162.989 86.9171 163.036 83.3509C163.036 83.1991 163.118 83.059 163.246 82.9831C163.316 82.9423 163.398 82.9189 163.474 82.9189C163.538 82.9189 163.608 82.9365 163.667 82.9656C169.363 85.7731 173.601 89.3159 175.293 92.6837C175.731 93.5592 175.988 94.4114 176.058 95.211C176.18 96.7344 175.62 98.0418 174.388 99.0924C172.462 100.738 169.095 101.643 164.898 101.643Z" fill="#93D1EE"/>
<path d="M163.474 83.3569C168.902 86.036 173.209 89.5146 174.902 92.8824C175.317 93.7053 175.556 94.505 175.62 95.2462C175.731 96.6237 175.223 97.8027 174.103 98.7599C172.211 100.377 168.914 101.205 164.898 101.205C163.159 101.205 161.285 101.048 159.336 100.739L161.63 94.1431C162.849 90.4543 163.427 86.8181 163.468 83.3628M163.474 82.4814C163.316 82.4814 163.159 82.5223 163.019 82.6098C162.762 82.7674 162.604 83.0417 162.598 83.3453C162.552 86.8648 161.945 90.4018 160.801 93.8629L158.507 100.441C158.419 100.686 158.449 100.954 158.583 101.176C158.717 101.398 158.939 101.55 159.196 101.591C161.174 101.912 163.095 102.069 164.898 102.069C169.258 102.069 172.638 101.153 174.669 99.4136C175.994 98.2813 176.624 96.8105 176.49 95.1645C176.42 94.3065 176.145 93.4018 175.684 92.4796C173.951 89.0302 169.637 85.4173 163.859 82.5631C163.737 82.5048 163.602 82.4756 163.474 82.4756V82.4814Z" fill="#0000F4"/>
<path d="M166.608 74.1462C165.493 74.1462 164.285 73.9886 163.024 73.6851C158.198 72.5061 154.246 69.5469 154.03 66.9437C154.001 66.5877 154.042 66.2433 154.153 65.9223L156.388 59.5078L157.217 59.7938C157.147 59.9981 157.118 60.2199 157.141 60.4534C157.322 62.6304 161.133 65.362 165.47 66.4184C166.667 66.7103 167.799 66.8562 168.849 66.8562C170.974 66.8562 172.451 66.2492 172.807 65.2336C172.871 65.0527 173.04 64.9418 173.221 64.9418C173.268 64.9418 173.32 64.9476 173.367 64.9651C173.595 65.0468 173.717 65.292 173.636 65.5254L171.4 71.9399C170.91 73.3466 169.165 74.152 166.614 74.152L166.608 74.1462Z" fill="#B6FCE1"/>
<path d="M156.803 59.6538C156.715 59.9106 156.68 60.1908 156.703 60.4943C156.902 62.8873 160.783 65.7298 165.365 66.8446C166.62 67.1481 167.799 67.294 168.849 67.294C171.143 67.294 172.795 66.5995 173.221 65.3796L170.986 71.7941C170.56 73.014 168.908 73.7085 166.614 73.7085C165.569 73.7085 164.39 73.5626 163.13 73.2591C158.548 72.1443 154.666 69.296 154.468 66.9088C154.445 66.6053 154.48 66.3251 154.567 66.0683L156.803 59.6538ZM156.803 58.7783C156.441 58.7783 156.102 59.006 155.974 59.3678L153.738 65.7823C153.61 66.1617 153.557 66.5644 153.592 66.9847C153.82 69.7629 157.917 72.8972 162.919 74.1171C164.215 74.4323 165.458 74.5957 166.608 74.5957C169.357 74.5957 171.254 73.6852 171.809 72.0918L174.027 65.724C174.067 65.6189 174.091 65.508 174.091 65.3913C174.091 64.9243 173.729 64.545 173.274 64.5158C173.256 64.5158 173.233 64.5158 173.215 64.5158C173.163 64.5158 173.11 64.5158 173.058 64.5333C172.929 64.5566 172.818 64.6033 172.713 64.6792C172.608 64.7551 172.515 64.8485 172.451 64.9652C172.421 65.0119 172.398 65.0644 172.381 65.1228C172.089 65.9224 170.7 66.436 168.838 66.436C167.828 66.436 166.725 66.2901 165.563 66.01C161.028 64.9068 157.713 62.1869 157.567 60.4359C157.555 60.2608 157.567 60.1032 157.62 59.9573C157.777 59.5021 157.538 59.0001 157.083 58.8425C156.989 58.8075 156.89 58.7958 156.797 58.7958L156.803 58.7783Z" fill="#0000F4"/>
<path d="M169.194 69.6574C167.916 69.6574 166.538 69.4765 165.091 69.1263C159.569 67.7839 155.052 64.4044 154.812 61.4394C154.777 61.0367 154.824 60.6515 154.952 60.2954L157.521 52.9295C157.585 52.7486 157.754 52.6377 157.935 52.6377C157.982 52.6377 158.034 52.6435 158.081 52.661C158.308 52.7428 158.431 52.9879 158.349 53.2155C158.268 53.4548 158.233 53.7233 158.256 54.0035C158.466 56.5308 162.867 59.6942 167.869 60.9141C169.246 61.2468 170.554 61.4219 171.762 61.4219C174.231 61.4219 175.953 60.7098 176.373 59.5133C176.437 59.3324 176.606 59.2215 176.787 59.2215C176.834 59.2215 176.887 59.2273 176.933 59.2448C177.161 59.3265 177.283 59.5717 177.202 59.8051L174.634 67.171C174.079 68.7586 172.101 69.6691 169.2 69.6691L169.194 69.6574Z" fill="#8359E8"/>
<path d="M157.929 53.0757C157.824 53.3734 157.783 53.6944 157.812 54.0387C158.04 56.7878 162.493 60.0564 167.758 61.3346C169.2 61.6848 170.554 61.8541 171.756 61.8541C174.389 61.8541 176.291 61.0544 176.776 59.6536L174.208 67.0195C173.717 68.4203 171.82 69.2199 169.188 69.2199C167.986 69.2199 166.632 69.0565 165.19 68.7005C159.925 67.4164 155.466 64.1479 155.244 61.4046C155.215 61.0544 155.256 60.7334 155.361 60.4416L157.929 53.0757ZM157.929 52.2002C157.567 52.2002 157.229 52.4278 157.1 52.7897L154.532 60.1556C154.386 60.57 154.334 61.0194 154.369 61.4805C154.626 64.6206 159.289 68.1693 164.98 69.5585C166.456 69.9203 167.875 70.1013 169.182 70.1013C172.281 70.1013 174.412 69.0857 175.031 67.3113L177.581 59.9922C177.622 59.8871 177.645 59.7762 177.645 59.6595C177.645 59.175 177.254 58.784 176.77 58.784C176.379 58.784 176.052 59.0349 175.935 59.3851C175.579 60.3715 173.974 60.9844 171.745 60.9844C170.571 60.9844 169.299 60.821 167.957 60.4941C162.616 59.1925 158.845 56.0757 158.676 53.9745C158.659 53.7586 158.676 53.5543 158.746 53.3675C158.904 52.9123 158.665 52.4103 158.209 52.2527C158.116 52.2177 158.017 52.206 157.923 52.206L157.929 52.2002Z" fill="#0000F4"/>
<path d="M171.756 62.2976C170.478 62.2976 169.101 62.1167 167.659 61.7665C162.137 60.4241 157.62 57.0446 157.38 54.0796C157.316 53.2858 157.561 52.562 158.098 51.9784C159.015 50.9861 160.737 50.4375 162.955 50.4375C164.233 50.4375 165.61 50.6184 167.052 50.9686C172.573 52.3169 177.091 55.6905 177.336 58.6555C177.4 59.4493 177.155 60.1731 176.618 60.7567C175.702 61.749 173.98 62.2976 171.762 62.2976H171.756Z" fill="#D5C5FA"/>
<path d="M162.949 50.8755C164.151 50.8755 165.499 51.0389 166.941 51.395C172.211 52.679 176.665 55.9476 176.892 58.6966C177.056 60.6928 174.943 61.866 171.756 61.866C170.554 61.866 169.2 61.7025 167.758 61.3465C162.493 60.0624 158.034 56.7939 157.812 54.0507C157.649 52.0545 159.762 50.8813 162.949 50.8813M162.949 50C160.608 50 158.77 50.5953 157.772 51.681C157.153 52.3522 156.867 53.1927 156.943 54.1149C157.2 57.255 161.863 60.8037 167.554 62.1928C169.031 62.5547 170.449 62.7356 171.756 62.7356C174.097 62.7356 175.935 62.1403 176.933 61.0547C177.552 60.3834 177.838 59.543 177.762 58.6208C177.505 55.4806 172.842 51.9319 167.145 50.5428C165.669 50.1809 164.256 50 162.949 50Z" fill="#0000F4"/>
<path d="M139.38 138.017C136.999 138.537 136.24 140.369 136.316 141.788C136.38 142.978 136.333 144.169 135.545 144.782C134.314 145.739 133.339 147.694 134.635 150.047C135.791 152.136 139.608 154.809 141.382 154.348C142.129 154.156 142.725 153.677 143.069 152.994C143.501 152.142 143.495 151.068 143.057 149.982C142.59 148.821 141.785 147.391 141.347 146.644C141.289 146.539 141.312 146.41 141.411 146.34L141.942 145.949C142.561 145.494 142.736 144.642 142.345 143.976L141.557 142.634L141.925 142.371C142.082 142.26 142.047 142.021 141.867 141.957L140.215 141.373C140.069 141.321 139.911 141.426 139.9 141.583L139.812 143.399C139.8 143.597 140.022 143.714 140.186 143.603L140.518 143.369L141.254 144.618C141.318 144.724 141.289 144.858 141.189 144.928L140.658 145.319C140.04 145.774 139.865 146.62 140.25 147.286C140.67 148.004 141.44 149.37 141.878 150.455C142.176 151.191 142.199 151.909 141.937 152.422C141.761 152.772 141.458 153.017 141.067 153.117C140.168 153.35 136.8 151.331 135.75 149.428C134.839 147.782 135.452 146.463 136.328 145.78C137.577 144.805 137.664 143.177 137.588 141.718C137.565 141.251 137.635 139.692 139.654 139.255C141.68 138.817 144.668 139.033 145.725 140.043C146.098 140.399 146.051 140.86 145.946 141.181C145.742 141.84 145.088 142.552 144.178 142.856C143.898 142.949 143.728 143.241 143.775 143.539C143.833 143.924 144.225 144.175 144.598 144.052C145.765 143.655 146.746 142.745 147.125 141.659C147.137 141.63 147.149 141.601 147.155 141.572C147.452 140.644 147.248 139.757 146.6 139.132C145.048 137.638 141.376 137.585 139.386 138.017H139.38Z" fill="#0000F4"/>
<path d="M127.25 146.294C127.068 146.809 126.778 147.217 126.379 147.519C125.977 147.82 125.499 147.997 124.943 148.051C124.385 148.103 123.779 148.014 123.126 147.783C122.478 147.554 121.955 147.244 121.556 146.853C121.158 146.462 120.899 146.023 120.78 145.535C120.66 145.046 120.692 144.542 120.876 144.023C121.018 143.621 121.197 143.327 121.413 143.142C121.628 142.952 121.841 142.826 122.054 142.762C122.264 142.695 122.435 142.646 122.567 142.614L122.595 142.534L119.558 141.46L119.893 140.512L128.121 143.421L127.798 144.337L126.849 144.001L126.81 144.114C126.898 144.223 127.004 144.373 127.13 144.562C127.254 144.75 127.34 144.987 127.39 145.273C127.437 145.557 127.39 145.898 127.25 146.294ZM126.444 145.865C126.578 145.484 126.593 145.128 126.487 144.795C126.379 144.462 126.173 144.164 125.867 143.903C125.559 143.64 125.172 143.427 124.706 143.262C124.246 143.099 123.819 143.023 123.426 143.035C123.03 143.046 122.69 143.149 122.404 143.343C122.116 143.536 121.904 143.826 121.767 144.211C121.625 144.613 121.61 144.984 121.721 145.325C121.831 145.662 122.038 145.96 122.342 146.218C122.643 146.472 123.011 146.676 123.445 146.829C123.884 146.985 124.307 147.059 124.713 147.052C125.118 147.041 125.473 146.941 125.778 146.75C126.082 146.556 126.304 146.261 126.444 145.865ZM128.782 141.552L122.611 139.371L122.935 138.455L123.867 138.784L123.889 138.72C123.624 138.499 123.448 138.208 123.362 137.846C123.276 137.484 123.298 137.119 123.429 136.749C123.454 136.679 123.486 136.593 123.525 136.489C123.565 136.386 123.597 136.308 123.621 136.257L124.586 136.597C124.566 136.627 124.528 136.696 124.471 136.806C124.413 136.912 124.361 137.027 124.317 137.153C124.211 137.453 124.179 137.743 124.221 138.024C124.262 138.3 124.368 138.546 124.54 138.76C124.709 138.97 124.933 139.125 125.212 139.224L129.117 140.604L128.782 141.552ZM130.27 137.343L124.099 135.161L124.434 134.213L130.605 136.395L130.27 137.343ZM123.241 134.315C123.176 134.5 123.056 134.637 122.883 134.727C122.711 134.813 122.536 134.826 122.359 134.763C122.183 134.701 122.055 134.581 121.975 134.406C121.896 134.227 121.89 134.046 121.955 133.861C122.021 133.676 122.139 133.54 122.312 133.453C122.485 133.364 122.66 133.351 122.837 133.413C123.013 133.476 123.141 133.596 123.22 133.774C123.299 133.95 123.306 134.131 123.241 134.315ZM137.063 151.318L140.775 152.631L140.44 153.579L134.269 151.397L134.593 150.481L135.557 150.822L135.585 150.742C135.323 150.486 135.149 150.178 135.063 149.816C134.974 149.453 135.012 149.039 135.177 148.573C135.325 148.155 135.54 147.819 135.822 147.567C136.101 147.313 136.445 147.16 136.852 147.108C137.256 147.055 137.721 147.122 138.246 147.307L142.167 148.693L141.832 149.642L137.975 148.278C137.49 148.107 137.068 148.099 136.708 148.255C136.346 148.41 136.087 148.708 135.932 149.147C135.825 149.449 135.795 149.743 135.842 150.028C135.89 150.31 136.016 150.564 136.219 150.79C136.423 151.015 136.704 151.191 137.063 151.318ZM140.842 145.281L139.663 144.883L139.732 144.69L137.938 141.019L138.353 139.845L140.245 143.75L140.216 143.831L140.842 145.281ZM142.78 146.961L134.551 144.052L134.887 143.104L143.115 146.013L142.78 146.961ZM144.166 143.04L140.26 144.371L139.84 143.463L144.592 141.834L144.166 143.04Z" fill="#0000F4"/>
<path d="M133.952 158.012C133.79 158.47 133.592 158.843 133.358 159.131C133.126 159.42 132.876 159.64 132.608 159.793C132.344 159.943 132.082 160.045 131.822 160.098L131.559 159.155C131.702 159.109 131.869 159.046 132.06 158.966C132.254 158.887 132.444 158.752 132.632 158.563C132.823 158.371 132.985 158.089 133.116 157.717C133.292 157.219 133.317 156.765 133.191 156.356C133.064 155.946 132.744 155.651 132.23 155.469L130.976 155.026L130.948 155.106C131.036 155.216 131.14 155.364 131.26 155.551C131.379 155.735 131.461 155.969 131.505 156.252C131.548 156.533 131.498 156.874 131.356 157.275C131.18 157.774 130.904 158.179 130.528 158.492C130.153 158.803 129.7 158.994 129.168 159.065C128.638 159.133 128.051 159.054 127.409 158.827C126.776 158.603 126.265 158.298 125.875 157.91C125.482 157.521 125.227 157.082 125.11 156.595C124.991 156.107 125.023 155.603 125.207 155.083C125.349 154.682 125.528 154.386 125.745 154.198C125.961 154.006 126.175 153.877 126.389 153.811C126.6 153.741 126.772 153.69 126.904 153.658L126.938 153.562L125.957 153.215L126.281 152.299L132.629 154.544C133.159 154.731 133.548 155.004 133.795 155.362C134.045 155.719 134.177 156.127 134.189 156.587C134.205 157.044 134.126 157.52 133.952 158.012ZM130.55 156.846C130.684 156.465 130.711 156.113 130.629 155.789C130.548 155.465 130.368 155.177 130.09 154.925C129.811 154.673 129.444 154.466 128.989 154.305C128.544 154.148 128.128 154.076 127.741 154.09C127.353 154.104 127.017 154.208 126.731 154.402C126.445 154.596 126.234 154.886 126.098 155.272C125.956 155.674 125.939 156.045 126.048 156.384C126.158 156.721 126.361 157.018 126.656 157.273C126.953 157.525 127.31 157.725 127.728 157.873C128.156 158.024 128.559 158.091 128.936 158.074C129.311 158.053 129.639 157.943 129.92 157.744C130.2 157.542 130.409 157.242 130.55 156.846ZM133.853 150.981C133.714 151.372 133.515 151.7 133.255 151.967C132.992 152.233 132.687 152.41 132.34 152.498C131.99 152.585 131.614 152.557 131.212 152.415C130.858 152.29 130.596 152.119 130.426 151.903C130.253 151.685 130.145 151.437 130.101 151.159C130.058 150.882 130.055 150.592 130.093 150.289C130.129 149.982 130.179 149.679 130.242 149.379C130.327 148.987 130.398 148.67 130.456 148.428C130.513 148.183 130.529 147.996 130.506 147.867C130.483 147.736 130.395 147.643 130.242 147.589L130.21 147.578C129.814 147.437 129.468 147.437 129.171 147.576C128.876 147.713 128.651 148 128.497 148.436C128.337 148.889 128.31 149.279 128.417 149.606C128.525 149.933 128.672 150.189 128.861 150.373L128.221 151.159C127.903 150.866 127.687 150.548 127.572 150.207C127.456 149.861 127.413 149.515 127.443 149.167C127.471 148.815 127.54 148.484 127.65 148.173C127.72 147.975 127.824 147.756 127.963 147.515C128.101 147.272 128.284 147.055 128.514 146.865C128.745 146.672 129.035 146.547 129.384 146.49C129.732 146.432 130.152 146.49 130.642 146.664L134.708 148.101L134.373 149.049L133.537 148.754L133.52 148.802C133.631 148.914 133.737 149.071 133.836 149.275C133.936 149.479 133.995 149.725 134.014 150.012C134.033 150.299 133.979 150.622 133.853 150.981ZM133.052 150.535C133.184 150.16 133.223 149.818 133.166 149.509C133.111 149.197 132.99 148.934 132.803 148.72C132.617 148.504 132.396 148.35 132.139 148.259L131.271 147.953C131.305 148.01 131.318 148.114 131.31 148.265C131.3 148.412 131.279 148.579 131.245 148.766C131.211 148.95 131.175 149.128 131.137 149.302C131.098 149.472 131.068 149.61 131.045 149.717C130.99 149.975 130.961 150.223 130.957 150.463C130.952 150.699 130.997 150.908 131.093 151.09C131.187 151.268 131.354 151.399 131.595 151.484C131.925 151.601 132.217 151.567 132.472 151.383C132.725 151.195 132.918 150.912 133.052 150.535ZM135.32 146.37L129.148 144.189L129.472 143.273L130.437 143.614L130.465 143.533C130.181 143.288 129.999 142.99 129.918 142.639C129.834 142.287 129.864 141.91 130.006 141.509C130.15 141.101 130.362 140.795 130.642 140.59C130.921 140.381 131.252 140.259 131.635 140.223L131.658 140.158C131.395 139.888 131.226 139.561 131.15 139.179C131.072 138.795 131.111 138.383 131.267 137.941C131.462 137.389 131.794 136.999 132.264 136.77C132.731 136.54 133.327 136.554 134.053 136.811L138.183 138.271L137.848 139.219L133.718 137.759C133.262 137.598 132.893 137.607 132.609 137.787C132.326 137.967 132.124 138.226 132.005 138.563C131.852 138.997 131.864 139.38 132.042 139.711C132.218 140.041 132.505 140.277 132.904 140.418L136.922 141.838L136.581 142.803L132.354 141.308C132.003 141.184 131.681 141.198 131.386 141.35C131.088 141.501 130.876 141.756 130.749 142.115C130.662 142.361 130.646 142.615 130.702 142.876C130.758 143.134 130.88 143.369 131.067 143.583C131.251 143.793 131.495 143.952 131.798 144.059L135.655 145.422L135.32 146.37ZM139.839 133.995C139.629 134.59 139.316 135.056 138.902 135.395C138.485 135.73 137.998 135.93 137.442 135.995C136.884 136.057 136.288 135.976 135.656 135.753C135.024 135.529 134.508 135.217 134.107 134.816C133.705 134.412 133.442 133.954 133.318 133.443C133.192 132.929 133.228 132.393 133.425 131.836C133.539 131.515 133.705 131.216 133.922 130.941C134.14 130.665 134.415 130.441 134.747 130.27C135.077 130.097 135.465 130.003 135.913 129.99C136.36 129.977 136.872 130.072 137.448 130.275L137.85 130.417L136.168 135.174L135.349 134.884L136.689 131.092C136.341 130.969 136.006 130.928 135.683 130.971C135.362 131.011 135.077 131.13 134.829 131.329C134.582 131.525 134.398 131.794 134.277 132.137C134.143 132.515 134.122 132.875 134.212 133.217C134.3 133.555 134.466 133.851 134.712 134.103C134.957 134.356 135.25 134.542 135.59 134.662L136.136 134.856C136.602 135.02 137.026 135.08 137.407 135.033C137.786 134.984 138.111 134.844 138.382 134.614C138.65 134.384 138.852 134.077 138.988 133.694C139.076 133.445 139.12 133.208 139.122 132.982C139.121 132.753 139.076 132.54 138.986 132.342C138.894 132.144 138.755 131.966 138.569 131.81L139.15 130.985C139.426 131.191 139.642 131.45 139.797 131.761C139.95 132.071 140.033 132.417 140.046 132.798C140.056 133.178 139.987 133.577 139.839 133.995ZM141.527 158.575L141.467 159.512C141.306 159.515 141.14 159.546 140.969 159.603C140.797 159.656 140.635 159.756 140.484 159.901C140.333 160.047 140.209 160.258 140.112 160.533C139.978 160.911 139.954 161.257 140.039 161.57C140.122 161.88 140.297 162.081 140.562 162.175C140.797 162.258 141.014 162.239 141.211 162.115C141.408 161.992 141.617 161.765 141.837 161.433L142.385 160.596C142.714 160.092 143.065 159.753 143.436 159.58C143.805 159.406 144.205 159.395 144.636 159.548C144.99 159.673 145.27 159.886 145.477 160.188C145.684 160.488 145.804 160.847 145.837 161.265C145.87 161.683 145.802 162.132 145.632 162.612C145.41 163.241 145.089 163.714 144.67 164.03C144.251 164.346 143.759 164.466 143.196 164.39L143.289 163.41C143.651 163.442 143.958 163.368 144.208 163.189C144.459 163.006 144.654 162.721 144.791 162.332C144.947 161.89 144.977 161.506 144.882 161.18C144.784 160.851 144.603 160.639 144.338 160.545C144.124 160.469 143.918 160.481 143.72 160.58C143.52 160.678 143.328 160.869 143.146 161.154L142.542 162.098C142.208 162.616 141.854 162.957 141.479 163.123C141.102 163.285 140.701 163.291 140.275 163.14C139.927 163.017 139.653 162.811 139.454 162.52C139.257 162.227 139.141 161.884 139.109 161.49C139.078 161.093 139.139 160.678 139.292 160.244C139.508 159.633 139.811 159.201 140.202 158.947C140.594 158.691 141.036 158.567 141.527 158.575ZM146.86 158.728L140.689 156.547L141.025 155.599L147.196 157.78L146.86 158.728ZM139.831 155.701C139.766 155.886 139.647 156.023 139.473 156.112C139.301 156.199 139.127 156.211 138.95 156.149C138.773 156.086 138.645 155.967 138.565 155.791C138.487 155.613 138.48 155.431 138.546 155.246C138.611 155.062 138.73 154.926 138.902 154.839C139.075 154.75 139.25 154.736 139.427 154.799C139.604 154.861 139.731 154.982 139.81 155.16C139.89 155.336 139.897 155.516 139.831 155.701ZM151.133 154.416C150.971 154.874 150.773 155.247 150.539 155.535C150.307 155.824 150.057 156.044 149.789 156.197C149.525 156.347 149.263 156.449 149.004 156.502L148.74 155.559C148.883 155.513 149.05 155.45 149.241 155.37C149.435 155.291 149.625 155.156 149.813 154.967C150.004 154.775 150.166 154.493 150.297 154.121C150.473 153.623 150.498 153.169 150.372 152.76C150.245 152.35 149.925 152.055 149.411 151.873L148.157 151.43L148.129 151.51C148.217 151.619 148.321 151.768 148.441 151.955C148.56 152.139 148.642 152.372 148.686 152.656C148.729 152.937 148.679 153.278 148.537 153.679C148.361 154.177 148.085 154.583 147.709 154.896C147.334 155.207 146.881 155.397 146.35 155.469C145.819 155.537 145.232 155.458 144.59 155.231C143.958 155.007 143.446 154.701 143.056 154.313C142.663 153.924 142.409 153.486 142.292 152.999C142.172 152.511 142.204 152.007 142.388 151.487C142.53 151.085 142.709 150.79 142.927 150.602C143.142 150.41 143.356 150.281 143.57 150.215C143.781 150.145 143.953 150.094 144.085 150.062L144.119 149.966L143.138 149.619L143.462 148.703L149.81 150.947C150.341 151.135 150.729 151.408 150.976 151.766C151.227 152.123 151.358 152.531 151.37 152.991C151.386 153.448 151.307 153.923 151.133 154.416ZM147.731 153.25C147.865 152.869 147.892 152.517 147.81 152.193C147.729 151.869 147.549 151.581 147.271 151.329C146.992 151.077 146.625 150.87 146.17 150.709C145.725 150.552 145.309 150.48 144.922 150.494C144.534 150.508 144.198 150.611 143.912 150.806C143.627 151 143.416 151.29 143.279 151.676C143.137 152.078 143.121 152.448 143.229 152.788C143.339 153.125 143.542 153.421 143.837 153.677C144.134 153.929 144.491 154.129 144.909 154.277C145.337 154.428 145.74 154.495 146.117 154.478C146.492 154.457 146.82 154.347 147.101 154.148C147.381 153.945 147.591 153.646 147.731 153.25ZM146.87 146.889L150.582 148.201L150.247 149.149L142.019 146.24L142.354 145.292L145.375 146.36L145.404 146.28C145.136 146.023 144.96 145.716 144.874 145.361C144.788 145.001 144.83 144.579 145.001 144.095C145.15 143.674 145.364 143.336 145.645 143.079C145.923 142.822 146.265 142.667 146.672 142.615C147.077 142.56 147.545 142.626 148.076 142.813L151.997 144.199L151.662 145.148L147.805 143.784C147.315 143.611 146.891 143.604 146.533 143.764C146.173 143.92 145.914 144.222 145.756 144.669C145.646 144.98 145.614 145.281 145.658 145.574C145.703 145.864 145.826 146.125 146.028 146.356C146.23 146.584 146.511 146.762 146.87 146.889ZM147.388 137.599L148.191 137.883L147.061 141.082L146.257 140.797L147.388 137.599ZM145.108 139.343L145.443 138.394L151.325 140.474C151.593 140.569 151.808 140.601 151.969 140.57C152.129 140.536 152.253 140.466 152.342 140.359C152.43 140.248 152.498 140.123 152.547 139.984C152.584 139.879 152.609 139.792 152.622 139.721C152.632 139.649 152.64 139.592 152.647 139.549L153.567 139.657C153.568 139.73 153.56 139.828 153.544 139.952C153.53 140.077 153.492 140.227 153.429 140.404C153.334 140.672 153.184 140.914 152.978 141.13C152.773 141.344 152.523 141.494 152.227 141.579C151.933 141.662 151.606 141.64 151.247 141.513L145.108 139.343Z" fill="#0000F4"/>
<path d="M129.568 234.999C128.22 234.999 127.006 234.783 125.955 234.357C125.068 234.001 124.304 233.493 123.679 232.851L96.7429 205.045L97.3733 204.438C97.9103 204.993 98.5698 205.431 99.3461 205.74C100.292 206.119 101.395 206.318 102.632 206.318C109.776 206.318 120.072 200.084 127.666 191.154C135.388 182.072 138.207 172.605 134.36 168.636L134.991 168.029L161.927 195.835C166.158 200.201 163.421 209.948 155.267 219.532C147.516 228.643 136.952 235.005 129.568 235.005V234.999Z" fill="#65A0F5"/>
<path d="M134.67 168.333L161.606 196.138C165.551 200.212 162.978 209.785 154.929 219.246C147.113 228.427 136.648 234.561 129.563 234.561C128.296 234.561 127.134 234.363 126.113 233.954C125.267 233.61 124.561 233.137 123.989 232.548L97.0523 204.742C97.6243 205.331 98.3305 205.804 99.1768 206.148C100.192 206.557 101.354 206.755 102.626 206.755C109.712 206.755 120.177 200.621 127.992 191.44C136.041 181.979 138.615 172.407 134.67 168.333ZM135.3 167.726L134.67 168.333L134.039 168.94C137.722 172.745 134.897 181.967 127.327 190.868C119.809 199.705 109.654 205.88 102.626 205.88C101.447 205.88 100.403 205.699 99.5095 205.337C98.7916 205.045 98.1787 204.643 97.6826 204.135C97.5134 203.96 97.2799 203.866 97.0523 203.866C96.8305 203.866 96.6145 203.948 96.4453 204.111C96.1009 204.45 96.0892 205.004 96.4277 205.349L123.364 233.155C124.029 233.838 124.841 234.38 125.792 234.76C126.895 235.203 128.168 235.431 129.568 235.431C137.069 235.431 147.773 229.005 155.6 219.806C163.906 210.047 166.631 200.061 162.236 195.526L135.3 167.72V167.726Z" fill="#0000F4"/>
<path d="M161.612 196.133L134.675 168.327C138.621 172.401 136.047 181.973 127.998 191.435C127.537 191.977 127.064 192.503 126.586 193.028L147.236 214.338C149.617 216.795 149.623 221.26 147.481 226.495C150.096 224.394 152.635 221.949 154.94 219.235C162.989 209.773 165.563 200.201 161.618 196.127L161.612 196.133Z" fill="#3072C1"/>
<path d="M102.632 207.193C101.284 207.193 100.07 206.977 99.0192 206.551C96.9764 205.728 95.6106 204.123 95.0678 201.916C93.8012 196.763 96.9939 188.883 103.397 181.348C111.148 172.237 121.712 165.875 129.096 165.875C130.444 165.875 131.658 166.091 132.709 166.517C134.751 167.34 136.111 168.945 136.654 171.151C137.921 176.305 134.728 184.185 128.325 191.72C120.574 200.831 110.01 207.193 102.626 207.193H102.632Z" fill="#1E49F1"/>
<path d="M129.101 166.319C130.374 166.319 131.529 166.517 132.551 166.926C139.251 169.634 137.209 180.607 127.998 191.44C120.183 200.621 109.718 206.755 102.632 206.755C101.366 206.755 100.204 206.557 99.1826 206.148C92.4821 203.44 94.5191 192.467 103.735 181.634C111.545 172.453 122.016 166.319 129.101 166.319ZM129.101 165.443C121.601 165.443 110.891 171.87 103.07 181.068C96.5736 188.702 93.346 196.734 94.6475 202.022C95.2254 204.374 96.6787 206.078 98.8558 206.96C99.9589 207.403 101.231 207.631 102.632 207.631C110.132 207.631 120.837 201.205 128.664 192.006C135.16 184.372 138.388 176.34 137.086 171.052C136.508 168.7 135.055 166.996 132.878 166.115C131.775 165.671 130.502 165.443 129.101 165.443Z" fill="#0000F4"/>
<path d="M103.198 204.544C101.972 204.544 100.864 204.345 99.9005 203.96C99.0892 203.633 98.3888 203.166 97.8168 202.582L58.3083 161.802C58.1391 161.626 58.1449 161.352 58.32 161.183C58.4075 161.101 58.5126 161.06 58.6235 161.06C58.7344 161.06 58.8511 161.107 58.9387 161.195C59.4231 161.691 60.0185 162.088 60.7189 162.374C61.571 162.718 62.5749 162.893 63.6897 162.893C70.1684 162.893 79.513 157.231 86.4061 149.13C93.4159 140.895 95.9724 132.309 92.4937 128.719L93.1241 128.112L132.633 168.893C136.496 172.88 134.004 181.757 126.586 190.483C119.535 198.771 109.922 204.555 103.204 204.555L103.198 204.544Z" fill="#65A0F5"/>
<path d="M92.8031 128.41L132.312 169.191C135.895 172.891 133.561 181.593 126.241 190.191C119.144 198.537 109.63 204.111 103.192 204.111C102.037 204.111 100.986 203.93 100.058 203.557C99.2876 203.248 98.6456 202.816 98.1261 202.279L58.6177 161.498C59.1372 162.035 59.7792 162.467 60.5496 162.776C61.4718 163.15 62.5283 163.331 63.6839 163.331C70.1218 163.331 79.6356 157.756 86.733 149.41C94.0521 140.807 96.3868 132.11 92.8031 128.41ZM92.8031 127.534C92.5813 127.534 92.3653 127.616 92.1961 127.779C91.8517 128.118 91.84 128.672 92.1786 129.017C95.4471 132.384 92.8206 140.912 86.0734 148.844C79.2562 156.858 70.0517 162.455 63.6898 162.455C62.6333 162.455 61.6878 162.292 60.8823 161.965C60.2403 161.708 59.6916 161.346 59.2539 160.891L58.6235 161.498L57.9932 162.105L97.5016 202.886C98.1145 203.516 98.8616 204.012 99.7312 204.368C100.741 204.777 101.908 204.987 103.192 204.987C110.033 204.987 119.786 199.139 126.913 190.763C134.489 181.856 136.969 172.739 132.942 168.584L93.4335 127.803C93.2642 127.628 93.0307 127.534 92.8031 127.534Z" fill="#0000F4"/>
<path d="M91.2681 143.031L126.154 179.037C128.302 181.255 128.325 185.259 126.422 189.97C133.596 181.442 135.866 172.856 132.312 169.185L92.8031 128.404C95.4938 131.183 94.8518 136.774 91.2681 143.025V143.031Z" fill="#3072C1"/>
<mask id="mask0_12_155" style="mask-type:luminance" maskUnits="userSpaceOnUse" x="58" y="128" width="76" height="77">
<path d="M92.8031 128.41L132.312 169.191C135.895 172.891 133.561 181.594 126.241 190.191C117.872 200.032 106.146 206.015 100.058 203.557C99.2876 203.248 98.6456 202.816 98.1261 202.279L58.6177 161.498C59.1371 162.035 59.7792 162.467 60.5496 162.777C66.6373 165.234 78.3631 159.251 86.7329 149.411C94.0521 140.807 96.3868 132.111 92.8031 128.41Z" fill="white"/>
</mask>
<g mask="url(#mask0_12_155)">
<path d="M95.1377 200.347L95.1261 204.445L93.8303 198.089L93.842 193.997L95.1377 200.347Z" fill="#FCFBD6"/>
<path d="M112.017 195.666L112.006 199.758L107.453 205.571L107.465 201.479L112.017 195.666Z" fill="#F3C254"/>
<path d="M96.3692 204.76L96.3576 208.851L85.5364 207.585L85.5481 203.487L96.3692 204.76Z" fill="#F3C254"/>
<path d="M114.959 206.184L103.992 205.454L98.5989 211.023L96.3751 204.76L85.5481 203.493L95.1436 200.353L93.8478 194.003L102.002 198.328L112.023 195.672L107.471 201.486L114.959 206.196V206.184Z" fill="#FCFBD6"/>
<path d="M95.1377 196.256L95.1261 200.347L93.8303 193.997L93.842 189.905L95.1377 196.256Z" fill="#FCFBD6"/>
<path d="M112.017 191.568L112.006 195.666L107.453 201.479L107.465 197.382L112.017 191.568Z" fill="#F3C254"/>
<path d="M96.3692 200.662L96.3576 204.759L85.5364 203.487L85.5481 199.396L96.3692 200.662Z" fill="#F3C254"/>
<path d="M114.959 202.092L114.947 206.183L103.974 205.454L103.986 201.362L114.959 202.092Z" fill="#FCFBD6"/>
<path d="M98.593 206.931L98.5813 211.022L96.3575 204.759L96.3692 200.662L98.593 206.931Z" fill="#FCFBD6"/>
<path d="M114.959 202.092L103.992 201.363L98.5989 206.931L96.3751 200.668L85.5481 199.402L95.1436 196.261L93.8478 189.911L102.002 194.236L112.023 191.58L107.471 197.394L114.959 202.104V202.092Z" fill="#FCFBD6"/>
<path d="M103.986 201.362L103.974 205.454L98.5813 211.022L98.593 206.93L103.986 201.362Z" fill="#F3C254"/>
<path d="M95.1377 192.159L95.1261 196.256L93.8303 189.906L93.842 185.809L95.1377 192.159Z" fill="#FCFBD6"/>
<path d="M112.017 187.478L112.006 191.569L107.453 197.382L107.465 193.291L112.017 187.478Z" fill="#F3C254"/>
<path d="M96.3692 196.571L96.3576 200.663L85.5364 199.396L85.5481 195.299L96.3692 196.571Z" fill="#F3C254"/>
<path d="M114.959 197.995L114.947 202.093L103.974 201.363L103.986 197.266L114.959 197.995Z" fill="#FCFBD6"/>
<path d="M98.593 202.834L98.5813 206.931L96.3575 200.663L96.3692 196.571L98.593 202.834Z" fill="#FCFBD6"/>
<path d="M114.959 197.996L103.992 197.266L98.5989 202.834L96.3751 196.571L85.5481 195.305L95.1436 192.165L93.8478 185.814L102.002 190.139L112.023 187.484L107.471 193.297L114.959 198.007V197.996Z" fill="#FCFBD6"/>
<path d="M103.986 197.266L103.974 201.363L98.5813 206.931L98.593 202.834L103.986 197.266Z" fill="#F3C254"/>
<path d="M95.1377 188.067L95.1261 192.159L93.8303 185.808L93.842 181.717L95.1377 188.067Z" fill="#FCFBD6"/>
<path d="M112.017 183.38L112.006 187.477L107.453 193.291L107.465 189.193L112.017 183.38Z" fill="#F3C254"/>
<path d="M96.3692 192.474L96.3576 196.571L85.5364 195.299L85.5481 191.207L96.3692 192.474Z" fill="#F3C254"/>
<path d="M114.959 193.903L114.947 197.995L103.974 197.265L103.986 193.174L114.959 193.903Z" fill="#FCFBD6"/>
<path d="M98.593 198.742L98.5813 202.834L96.3575 196.571L96.3692 192.474L98.593 198.742Z" fill="#FCFBD6"/>
<path d="M114.959 193.904L103.992 193.174L98.5989 198.742L96.3751 192.48L85.5481 191.213L95.1436 188.073L93.8478 181.723L102.002 186.048L112.023 183.392L107.471 189.205L114.959 193.915V193.904Z" fill="#FCFBD6"/>
<path d="M103.986 193.174L103.974 197.265L98.5813 202.834L98.593 198.742L103.986 193.174Z" fill="#F3C254"/>
<path d="M97.5425 191.324L105.848 186.403L101.599 187.53L96.6903 184.933L97.4724 188.75L91.7 190.641L97.5425 191.324Z" fill="#F3C254"/>
<path d="M105.352 188.837L98.6981 192.783L99.5503 195.176L102.795 191.825L109.397 192.263L104.885 189.432L105.352 188.837Z" fill="#F3C254"/>
<path d="M99.9997 171.8H95.9432C95.9432 171.8 96.486 174.975 99.9997 174.975C103.513 174.975 104.056 171.8 104.056 171.8H99.9997Z" fill="#0000F5"/>
<path d="M90.9178 168.321L94.8576 168.537L93.4393 162.724C93.4393 162.724 91.9159 165.8 90.9178 168.321Z" fill="#EB7956"/>
<path d="M109.659 169.611L105.72 169.827L106.461 163.098C106.461 163.098 108.661 167.09 109.659 169.611Z" fill="#EB7956"/>
<path d="M99.9939 173.75C98.4939 173.75 97.0697 173.405 96.0016 172.787C94.8752 172.133 94.2506 171.252 94.2448 170.3C94.2448 170.149 94.1572 169.781 94.0405 169.32C93.6261 167.621 92.7681 164.084 93.1417 158.79C93.3693 155.539 93.8596 153.035 94.2098 151.203L94.2798 150.847C94.309 150.707 94.4257 150.607 94.5658 150.607C94.5775 150.607 94.595 150.607 94.6067 150.607C94.6475 150.613 98.8441 151.214 99.9764 151.214C101.109 151.214 105.34 150.613 105.381 150.607C105.393 150.607 105.41 150.607 105.422 150.607C105.562 150.607 105.679 150.707 105.708 150.847L105.778 151.197C106.134 153.03 106.619 155.534 106.852 158.785C107.226 164.073 106.368 167.61 105.953 169.314C105.842 169.775 105.755 170.143 105.749 170.295C105.749 171.246 105.119 172.133 103.992 172.781C102.918 173.4 101.5 173.744 99.9939 173.744V173.75Z" fill="white"/>
<path d="M105.428 150.905C105.772 152.691 106.321 155.358 106.56 158.814C107.045 165.631 105.463 169.489 105.457 170.294C105.457 171.106 104.914 171.911 103.846 172.53C102.778 173.143 101.389 173.452 99.9939 173.458C98.6048 173.458 97.2098 173.149 96.1417 172.53C95.0736 171.911 94.5366 171.1 94.5308 170.294C94.5308 169.483 92.9432 165.631 93.4277 158.814C93.6728 155.358 94.2215 152.691 94.56 150.905C94.56 150.905 98.8032 151.518 99.9706 151.518H100.006C101.173 151.518 105.416 150.905 105.416 150.905M105.428 150.321C105.428 150.321 105.369 150.321 105.346 150.327C105.305 150.333 101.132 150.934 100.017 150.934H99.9822C98.8733 150.934 94.6942 150.333 94.6534 150.327C94.6242 150.327 94.595 150.321 94.5716 150.321C94.2973 150.321 94.0522 150.514 93.9997 150.794L93.9296 151.15C93.5911 152.884 93.0833 155.504 92.8557 158.773C92.4763 164.108 93.3459 167.674 93.7603 169.39C93.8537 169.781 93.953 170.184 93.953 170.3C93.953 171.363 94.6359 172.331 95.8557 173.038C96.9705 173.68 98.4414 174.042 99.9939 174.042C101.546 174.042 103.017 173.68 104.138 173.038C105.358 172.331 106.035 171.357 106.041 170.3C106.041 170.184 106.14 169.781 106.233 169.39C106.648 167.674 107.517 164.108 107.138 158.773C106.905 155.504 106.397 152.884 106.064 151.15L105.994 150.794C105.941 150.514 105.696 150.321 105.422 150.321H105.428Z" fill="#0000F4"/>
<path d="M105.428 150.904C105.428 150.904 103.525 151.179 101.914 151.36C102.755 153.916 103.543 157.424 103.455 161.492C103.332 167.375 102.229 171.397 101.558 173.323C102.399 173.177 103.187 172.914 103.852 172.529C104.92 171.91 105.457 171.099 105.463 170.294C105.463 169.482 107.05 165.63 106.566 158.813C106.321 155.358 105.772 152.69 105.434 150.904H105.428Z" fill="#AABDF9"/>
<path d="M99.9939 154.751C98.4939 154.751 97.0755 154.407 96.0016 153.788C94.8751 153.134 94.2506 152.253 94.2448 151.302C94.2448 150.397 94.916 148.506 95.3946 147.455C96.8596 144.257 98.5464 140.988 99.9764 140.988H100.011C101.447 140.988 103.134 144.257 104.593 147.455C105.072 148.506 105.749 150.397 105.743 151.302C105.743 152.253 105.113 153.14 103.986 153.788C102.912 154.407 101.494 154.751 99.988 154.751H99.9939Z" fill="#EF9C87"/>
<path d="M100.017 141.274C101.412 141.274 103.397 145.523 104.336 147.572C104.85 148.693 105.463 150.484 105.463 151.296C105.463 152.107 104.92 152.912 103.852 153.531C102.784 154.144 101.395 154.453 99.9997 154.459C98.6106 154.459 97.2156 154.15 96.1475 153.531C95.0794 152.912 94.5424 152.101 94.5366 151.296C94.5366 150.484 95.1494 148.693 95.6631 147.572C96.6028 145.523 98.5872 141.274 99.9822 141.274C99.988 141.274 99.9939 141.274 99.9997 141.274C100.006 141.274 100.011 141.274 100.017 141.274ZM100.017 140.69C100.017 140.69 100.006 140.69 99.9997 140.69C99.9939 140.69 99.988 140.69 99.9822 140.69C98.6923 140.69 97.2857 142.617 95.1319 147.333C94.6708 148.336 93.9471 150.298 93.9529 151.302C93.9529 152.364 94.6358 153.333 95.8557 154.039C96.9705 154.681 98.4413 155.043 99.9939 155.043C101.546 155.043 103.017 154.681 104.138 154.039C105.358 153.333 106.035 152.358 106.041 151.302C106.041 150.298 105.323 148.336 104.862 147.333C102.708 142.617 101.301 140.69 100.011 140.69H100.017Z" fill="#0000F4"/>
<path d="M104.336 147.578C103.42 145.576 101.506 141.473 100.111 141.286C100.922 142.92 102.264 146.72 102.393 154.133C102.918 153.981 103.408 153.788 103.846 153.531C104.914 152.913 105.451 152.101 105.457 151.296C105.457 150.485 104.844 148.693 104.331 147.572L104.336 147.578Z" fill="#ED8A6E"/>
<path d="M99.4336 142.973C98.8966 143.656 98.0269 145.074 96.6728 148.039C96.1417 149.195 95.6456 150.776 95.6514 151.296C95.6514 151.722 96.0366 152.189 96.7079 152.574C97.2915 152.913 98.0386 153.146 98.8499 153.263L99.4336 142.973Z" fill="#F6CDC3"/>
<path d="M96.2467 162.607L97.5074 173.183L91.2388 180.392C91.2388 180.392 90.7135 172.244 96.2467 162.607Z" fill="#EF9C87"/>
<path d="M92.4879 177.257C92.7681 174.707 93.5327 170.79 95.5697 166.337L96.3401 172.821L92.4879 177.251V177.257Z" fill="#F6CDC3"/>
<path d="M104.768 162.135L103.508 172.711L109.776 179.919C109.776 179.919 110.301 171.771 104.768 162.135Z" fill="#EF9C87"/>
<path d="M108.527 176.785C108.247 174.234 107.482 170.318 105.445 165.864L104.675 172.349L108.527 176.779V176.785Z" fill="#F6CDC3"/>
<path d="M98.1728 155.819C99.5678 156.596 100.397 158.498 100.023 160.069C99.6495 161.639 98.2254 162.286 96.8304 161.516C95.4354 160.746 94.6125 158.843 94.9802 157.267C95.3479 155.691 96.7779 155.043 98.167 155.819H98.1728Z" fill="white"/>
<path d="M97.8752 156.817C98.7798 157.319 99.3168 158.551 99.0775 159.572C98.8382 160.594 97.9102 161.014 97.0113 160.512C96.1125 160.01 95.5697 158.778 95.809 157.757C96.0483 156.736 96.9763 156.315 97.8752 156.817Z" fill="#65A0F5"/>
<path d="M97.6183 160.022C96.7137 159.52 96.1767 158.289 96.416 157.267C96.4685 157.04 96.5561 156.847 96.667 156.684C96.2584 156.835 95.9315 157.209 95.8031 157.752C95.5638 158.773 96.1008 160.005 97.0055 160.507C97.7117 160.898 98.4238 160.728 98.8207 160.151C98.4588 160.285 98.0328 160.256 97.6125 160.022H97.6183Z" fill="#0000F5"/>
<g opacity="0.55">
<path d="M91.2679 143.031L126.154 179.037C128.302 181.255 128.325 185.259 126.422 189.97C133.596 181.442 135.866 172.856 132.311 169.185L92.803 128.404C95.4937 131.183 94.8517 136.774 91.2679 143.025V143.031Z" fill="#3072C1"/>
</g>
</g>
<path d="M62.2773 166.174C60.929 166.174 59.715 165.958 58.6644 165.531C57.7772 165.17 57.0068 164.668 56.3881 164.026L38.4228 145.483C28.3837 135.426 26.1775 120.484 32.9363 108.291C36.3158 102.192 43.4657 98.5498 52.0515 98.5498C61.361 98.5498 70.9273 102.776 78.2931 110.147L94.63 127.009C98.8616 131.375 96.1242 141.117 87.9762 150.7C80.2251 159.812 69.6607 166.174 62.2773 166.174Z" fill="#7EEFF9"/>
<path d="M52.0457 98.9878C60.4972 98.9878 70.0985 102.577 77.978 110.457L94.3148 127.313C98.2604 131.387 95.6923 140.953 87.6435 150.415C79.8282 159.602 69.3631 165.73 62.2773 165.73C61.0049 165.73 59.8434 165.532 58.8279 165.123C57.9815 164.779 57.2753 164.306 56.7033 163.717L38.7439 145.179C38.7439 145.179 38.7497 145.185 38.7555 145.191C29.5278 135.963 26.2767 121.196 33.3216 108.502C36.7185 102.373 43.8393 98.9878 52.0515 98.9878M52.0457 98.1123C43.2965 98.1123 36.0123 101.836 32.5512 108.076C29.0958 114.309 27.8877 121.301 29.0667 128.294C30.1698 134.837 33.38 141.047 38.1018 145.78C38.1018 145.78 38.1077 145.786 38.1135 145.792L56.073 164.329C56.7383 165.012 57.5496 165.555 58.4952 165.934C59.5983 166.378 60.8707 166.606 62.2715 166.606C69.7716 166.606 80.4761 160.18 88.3031 150.981C96.6028 141.222 99.3344 131.235 94.9394 126.7L78.6025 109.844C71.1432 102.385 61.466 98.1123 52.0398 98.1123H52.0457Z" fill="#0000F4"/>
<path d="M69.8357 164.423C69.6898 164.423 69.5556 164.353 69.4738 164.23C69.3571 164.055 69.3805 163.821 69.5322 163.675C70.6645 162.555 71.7385 161.399 72.7307 160.232C80.4526 151.156 83.2659 141.689 79.4254 137.72L63.0885 120.863C55.8919 113.667 46.5591 109.54 37.483 109.54C35.913 109.54 34.3662 109.669 32.8837 109.92C32.8604 109.92 32.837 109.926 32.8137 109.926C32.6736 109.926 32.5452 109.861 32.4635 109.745C32.3643 109.61 32.3526 109.435 32.4285 109.283C32.5977 108.951 32.767 108.624 32.9479 108.297C36.3274 102.198 43.4773 98.5615 52.063 98.5615C61.3725 98.5615 70.9389 102.787 78.3047 110.159L94.6416 127.021C98.8732 131.387 96.1358 141.128 87.9878 150.712C87.6726 151.086 87.3516 151.448 87.0247 151.81L86.7095 152.154C86.4877 152.399 86.2601 152.644 86.0325 152.883L85.6648 153.269C85.4488 153.49 85.2329 153.712 85.0169 153.934L84.6375 154.313C84.4099 154.535 84.1881 154.751 83.9605 154.967L83.6103 155.3C83.3535 155.539 83.0966 155.773 82.8398 156.006L82.5713 156.251C81.8476 156.893 81.1122 157.518 80.3768 158.101C79.9857 158.417 79.6297 158.691 79.2736 158.959L79.0985 159.088C78.7833 159.327 78.4682 159.555 78.1471 159.782L77.9545 159.917C77.6335 160.144 77.3125 160.366 76.9915 160.582L76.8397 160.681C76.4779 160.926 76.116 161.16 75.7483 161.387C73.7988 162.607 71.8727 163.617 70.0108 164.388C69.9583 164.411 69.8999 164.423 69.8416 164.423H69.8357Z" fill="#5EC6D2"/>
<path d="M52.0456 98.9878C60.4971 98.9878 70.0984 102.577 77.9779 110.457L94.3148 127.313C98.2604 131.387 95.6922 140.953 87.6435 150.415C87.3283 150.782 87.0131 151.144 86.6921 151.5C86.587 151.617 86.482 151.728 86.3827 151.839C86.1609 152.084 85.9391 152.323 85.7115 152.563C85.5889 152.691 85.4664 152.819 85.3438 152.942C85.1278 153.164 84.9177 153.386 84.7018 153.602C84.5792 153.724 84.4508 153.853 84.3282 153.975C84.1064 154.197 83.8788 154.413 83.657 154.629C83.5403 154.74 83.4235 154.851 83.3068 154.962C83.05 155.201 82.799 155.434 82.5422 155.662C82.4546 155.744 82.3613 155.825 82.2737 155.907C81.5558 156.543 80.8321 157.156 80.0966 157.746C80.085 157.757 80.0733 157.763 80.0558 157.775C79.7056 158.055 79.3554 158.329 78.9993 158.592C78.941 158.633 78.8826 158.679 78.8242 158.72C78.5091 158.954 78.1997 159.187 77.8845 159.409C77.8203 159.456 77.7561 159.497 77.6978 159.543C77.3767 159.771 77.0616 159.993 76.7405 160.203C76.6939 160.238 76.6413 160.267 76.5946 160.302C76.2328 160.541 75.8767 160.775 75.5148 161.002C75.5148 161.002 75.509 161.002 75.5032 161.008C73.5887 162.211 71.6801 163.209 69.8416 163.973C70.9506 162.876 72.0303 161.72 73.0634 160.506C81.1122 151.045 83.6803 141.479 79.7348 137.405L63.3979 120.548C55.5184 112.669 45.9229 109.091 37.4772 109.091C35.8722 109.091 34.3079 109.219 32.8079 109.476C32.9713 109.149 33.1406 108.828 33.3215 108.502C36.7185 102.373 43.8392 98.9878 52.0514 98.9878M52.0456 98.1123C43.2964 98.1123 36.0122 101.836 32.5511 108.076C32.3643 108.414 32.1892 108.758 32.0258 109.074C31.874 109.371 31.9032 109.721 32.1017 109.99C32.2709 110.218 32.5336 110.346 32.8079 110.346C32.8546 110.346 32.9071 110.346 32.9538 110.334C34.413 110.089 35.9305 109.967 37.4772 109.967C46.4365 109.967 55.6585 114.052 62.7792 121.167L79.1044 138.018C82.7873 141.823 79.9682 151.039 72.3922 159.946C71.4117 161.096 70.3436 162.246 69.2229 163.36C68.9252 163.652 68.8785 164.119 69.112 164.469C69.2813 164.72 69.5556 164.861 69.8416 164.861C69.9525 164.861 70.0692 164.837 70.1743 164.796C72.0595 164.014 74.009 162.993 75.9643 161.767C76.3437 161.528 76.7114 161.288 77.0791 161.043L77.1783 160.973L77.225 160.938C77.5518 160.716 77.8729 160.495 78.1997 160.267L78.2347 160.238L78.3923 160.127C78.7133 159.899 79.0285 159.666 79.3495 159.427L79.4196 159.374L79.5246 159.298C79.8807 159.03 80.2425 158.75 80.5986 158.464L80.6394 158.434C81.3749 157.845 82.122 157.214 82.8515 156.567L83.0208 156.415L83.1259 156.321C83.3885 156.088 83.6453 155.849 83.9021 155.609C84.0014 155.516 84.1006 155.423 84.1998 155.329L84.2582 155.277C84.4858 155.061 84.7134 154.839 84.9411 154.617C85.0695 154.489 85.1979 154.366 85.3205 154.238C85.5423 154.016 85.7582 153.794 85.9742 153.572L86.0559 153.491C86.1551 153.391 86.2485 153.292 86.3477 153.187C86.5753 152.948 86.803 152.697 87.0306 152.452L87.1473 152.329C87.2174 152.253 87.2816 152.183 87.3516 152.107C87.6785 151.745 87.9995 151.378 88.3205 151.004C96.6203 141.245 99.3518 131.259 94.9568 126.724L78.6199 109.867C71.1607 102.408 61.4835 98.1357 52.0572 98.1357L52.0456 98.1123Z" fill="#0000F4"/>
<path d="M42.2751 145.599C40.9793 145.599 39.812 145.395 38.8081 144.992C36.8936 144.216 35.6154 142.716 35.1018 140.644C33.8644 135.613 37.0863 127.797 43.5124 120.245C51.1351 111.285 61.8162 104.789 68.9136 104.789C70.1744 104.789 71.3067 104.988 72.2931 105.384C74.2309 106.167 75.5266 107.707 76.0519 109.838C77.3009 114.927 74.0558 122.976 67.7813 130.348C60.2637 139.185 49.5359 145.599 42.2751 145.599Z" fill="white"/>
<path d="M68.9136 105.227C70.0985 105.227 71.1782 105.408 72.1296 105.793C78.6492 108.426 76.4137 119.533 67.4486 130.068C59.8259 139.033 49.2674 145.167 42.275 145.167C41.0552 145.167 39.9404 144.981 38.9715 144.59C32.4519 141.957 34.8916 131.06 43.8451 120.537C51.5028 111.537 61.9621 105.233 68.9136 105.233M68.9136 104.352C61.5827 104.352 51.0009 110.772 43.1797 119.965C36.666 127.622 33.4091 135.584 34.6815 140.749C35.2243 142.961 36.5959 144.566 38.6446 145.395C39.7011 145.821 40.9209 146.037 42.275 146.037C49.6526 146.037 60.5205 139.558 68.114 130.634C74.5752 123.041 77.7737 115.033 76.4721 109.733C75.9118 107.463 74.5227 105.817 72.4506 104.982C71.4175 104.562 70.2269 104.352 68.9078 104.352H68.9136Z" fill="#0000F4"/>
<path d="M42.2751 144.431C41.1253 144.431 40.1097 144.256 39.2459 143.906C37.6699 143.27 36.6602 142.079 36.24 140.363C35.1076 135.758 38.312 128.159 44.4055 121.003C51.8239 112.283 62.1315 105.956 68.9137 105.956C70.0226 105.956 71.009 106.131 71.8553 106.47C73.4546 107.118 74.4819 108.343 74.9196 110.118C76.0811 114.851 72.9351 122.497 66.8942 129.595C59.5808 138.192 49.2266 144.431 42.2751 144.431Z" fill="#C0E5F5"/>
<path d="M68.9136 106.394C69.9642 106.394 70.8981 106.557 71.6919 106.873C73.151 107.462 74.0907 108.589 74.4935 110.217C75.6258 114.822 72.509 122.311 66.5614 129.309C59.324 137.819 49.1098 143.994 42.275 143.994C41.1836 143.994 40.2205 143.83 39.4092 143.498C37.9734 142.92 37.0512 141.828 36.6602 140.258C35.5629 135.788 38.7322 128.34 44.7323 121.283C52.0748 112.657 62.2423 106.394 68.9078 106.394M68.9136 105.519C62.0088 105.519 51.5612 111.91 44.0727 120.717C37.8917 127.978 34.6523 135.735 35.8197 140.469C36.2691 142.301 37.4014 143.632 39.0882 144.309C40.0046 144.677 41.0785 144.864 42.2809 144.864C49.3491 144.864 59.8434 138.56 67.2327 129.869C73.3612 122.667 76.5421 114.869 75.3456 110.001C74.8787 108.11 73.7289 106.744 72.0187 106.056C71.1257 105.694 70.081 105.513 68.9136 105.513V105.519Z" fill="#0000F4"/>
<path d="M62.2773 166.173C60.929 166.173 59.715 165.957 58.6644 165.531C57.7772 165.169 57.0068 164.667 56.3881 164.025L38.4228 145.482C37.8158 144.875 37.2146 144.215 36.6309 143.526C36.4792 143.345 36.4967 143.077 36.6718 142.919C36.7535 142.843 36.8586 142.808 36.9636 142.808C37.0804 142.808 37.1971 142.855 37.2788 142.943C37.7808 143.468 38.4053 143.882 39.1349 144.18C40.0337 144.542 41.0902 144.729 42.275 144.729C49.3024 144.729 59.75 138.443 67.1159 129.787C72.9292 122.952 76.0752 115.662 75.3339 110.759C75.0538 108.909 74.225 107.537 72.8767 106.679C72.7658 106.609 72.6899 106.487 72.6783 106.358C72.6666 106.23 72.7133 106.096 72.8067 106.002C72.8942 105.915 73.0168 105.868 73.1335 105.868C73.2211 105.868 73.3086 105.892 73.3845 105.95C75.1238 107.228 76.7756 108.646 78.2873 110.158L94.6242 127.02C98.8557 131.386 96.1183 141.128 87.9703 150.711C80.2192 159.822 69.6549 166.184 62.2715 166.184L62.2773 166.173Z" fill="#65A0F5"/>
<path d="M73.1218 106.289C74.7911 107.514 76.4195 108.898 77.9779 110.456L94.3148 127.312C98.2604 131.386 95.6922 140.953 87.6435 150.414C79.8281 159.601 69.363 165.729 62.2773 165.729C61.0049 165.729 59.8434 165.531 58.8278 165.122C57.9815 164.778 57.2752 164.305 56.7032 163.716L38.7438 145.178C38.7438 145.178 38.7496 145.184 38.7555 145.19C38.1309 144.566 37.5356 143.912 36.9636 143.235C37.5006 143.795 38.166 144.25 38.9714 144.577C39.9403 144.968 41.0493 145.155 42.275 145.155C49.2673 145.155 59.8259 139.021 67.4486 130.056C75.9234 120.098 78.3748 109.633 73.116 106.294L73.1276 106.283M73.1218 105.413C72.8942 105.413 72.6724 105.501 72.5031 105.67L72.4914 105.682C72.3047 105.868 72.2113 106.131 72.2405 106.399C72.2697 106.668 72.4156 106.901 72.6432 107.042C73.8806 107.829 74.6393 109.096 74.902 110.818C75.6257 115.604 72.5148 122.76 66.7832 129.495C59.4932 138.063 49.1856 144.285 42.275 144.285C41.1485 144.285 40.1446 144.11 39.3041 143.772C38.6329 143.497 38.0551 143.118 37.5998 142.639C37.4305 142.458 37.1971 142.371 36.9694 142.371C36.7593 142.371 36.5492 142.447 36.3858 142.593C36.0356 142.908 35.9947 143.445 36.3041 143.807C36.8936 144.507 37.5064 145.173 38.1134 145.785C38.1134 145.785 38.1193 145.791 38.1251 145.797L56.0846 164.334C56.7499 165.017 57.5612 165.56 58.5068 165.939C59.6099 166.383 60.8823 166.611 62.2831 166.611C69.7832 166.611 80.4877 160.184 88.3147 150.986C96.6144 141.227 99.346 131.24 94.951 126.705L78.6141 109.849C77.0732 108.308 75.4039 106.878 73.6471 105.582C73.4895 105.466 73.3086 105.413 73.1276 105.413H73.1218Z" fill="#0000F4"/>
<path d="M73.5188 107.03C73.4254 107.03 73.332 107 73.2561 106.942L73.1977 106.895C73.0927 106.819 72.9876 106.744 72.8767 106.674C72.7658 106.604 72.6899 106.481 72.6783 106.347C72.6666 106.212 72.7133 106.084 72.8067 105.991C72.8942 105.903 73.0168 105.856 73.1335 105.856C73.2211 105.856 73.3086 105.88 73.3845 105.938C73.4662 105.997 73.5421 106.061 73.6238 106.119L73.7872 106.242C73.9799 106.388 74.0149 106.662 73.869 106.855C73.7814 106.965 73.653 107.03 73.5188 107.03Z" fill="white"/>
<path d="M73.1218 106.289C73.2327 106.37 73.3378 106.458 73.4487 106.54C73.3378 106.458 73.2269 106.376 73.1102 106.3L73.1218 106.289ZM73.4545 106.54C73.4545 106.54 73.5012 106.575 73.5187 106.592C73.4954 106.575 73.472 106.557 73.4545 106.54ZM73.1218 105.413C72.9 105.413 72.6724 105.501 72.5031 105.67L72.4915 105.682C72.3047 105.868 72.2113 106.131 72.2405 106.399C72.2697 106.662 72.4156 106.901 72.6432 107.042C72.7424 107.106 72.8358 107.17 72.9234 107.24L72.9876 107.292C73.1452 107.409 73.3319 107.468 73.5129 107.468C73.7755 107.468 74.0382 107.351 74.2133 107.123C74.5051 106.738 74.4292 106.189 74.0499 105.898L73.9857 105.845L73.8864 105.769C73.8047 105.705 73.723 105.641 73.6413 105.582C73.4837 105.466 73.3028 105.413 73.1218 105.413Z" fill="#0000F4"/>
<path d="M73.6121 107.1C73.5187 107.1 73.4253 107.071 73.3494 107.012L73.256 106.942C73.0634 106.796 73.0284 106.522 73.1743 106.329C73.2619 106.219 73.3903 106.154 73.5245 106.154C73.6179 106.154 73.7113 106.183 73.7872 106.242L73.8922 106.318C74.079 106.469 74.114 106.738 73.9623 106.931C73.8747 107.041 73.7463 107.1 73.6179 107.1H73.6121Z" fill="white"/>
<path d="M73.5187 106.586C73.5187 106.586 73.5362 106.598 73.5421 106.604C73.5362 106.598 73.5246 106.592 73.5187 106.586ZM73.5421 106.61C73.5421 106.61 73.5888 106.645 73.6121 106.662C73.5888 106.645 73.5654 106.627 73.5421 106.61ZM73.5187 105.711C73.2561 105.711 72.9934 105.828 72.8183 106.055C72.5265 106.441 72.6024 106.989 72.9818 107.281L73.0051 107.298L73.0284 107.316L73.0751 107.351C73.2327 107.474 73.4195 107.526 73.6004 107.526C73.8631 107.526 74.1199 107.409 74.2892 107.188C74.581 106.808 74.5226 106.265 74.1432 105.968C74.1141 105.944 74.0907 105.927 74.0615 105.904L74.0323 105.88C73.8748 105.763 73.688 105.705 73.5071 105.705L73.5187 105.711Z" fill="#0000F4"/>
<path d="M94.3148 127.312L77.978 110.456C76.5714 109.049 75.1122 107.794 73.6122 106.662C77.7504 109.983 76.0694 118.522 69.6841 127.231L85.198 143.246C86.9665 145.067 87.4217 147.997 86.6688 151.523C86.9957 151.161 87.3167 150.793 87.6377 150.42C95.6865 140.958 98.2546 131.392 94.309 127.318L94.3148 127.312Z" fill="#3072C1"/>
<path d="M69.7657 127.564C69.649 127.564 69.5322 127.517 69.4505 127.429L63.0827 120.857C59.7733 117.548 56.0495 114.892 52.0047 112.96C51.8646 112.896 51.7712 112.762 51.7596 112.61C51.742 112.458 51.8063 112.313 51.9288 112.219C58.0573 107.497 64.2442 104.783 68.9135 104.783C70.1743 104.783 71.3066 104.982 72.2871 105.379C74.1315 106.126 75.4039 107.561 75.9701 109.54C77.2308 113.953 75.0421 120.618 70.1159 127.377C70.04 127.482 69.9233 127.546 69.7949 127.558C69.7832 127.558 69.7774 127.558 69.7657 127.558V127.564Z" fill="#B6FCE1"/>
<path d="M68.9136 105.227C70.0984 105.227 71.1782 105.408 72.1238 105.793C78.0363 108.18 76.7464 117.542 69.7599 127.126L63.3921 120.554C59.9134 117.076 56.0962 114.432 52.1915 112.57C58.0807 108.029 64.2734 105.227 68.9077 105.227M68.9136 104.352C64.1509 104.352 57.8648 107.095 51.6604 111.875C51.4211 112.062 51.2927 112.359 51.3218 112.663C51.351 112.966 51.5378 113.229 51.818 113.363C55.8102 115.272 59.499 117.898 62.7792 121.179L69.1354 127.739C69.2988 127.908 69.5264 128.008 69.7657 128.008C69.7832 128.008 69.8066 128.008 69.8241 128.008C70.0809 127.99 70.3202 127.856 70.472 127.652C75.4798 120.782 77.6919 113.97 76.3904 109.435C75.7892 107.322 74.4234 105.787 72.4506 104.988C71.4175 104.568 70.2268 104.357 68.9077 104.357L68.9136 104.352Z" fill="#0000F4"/>
<path d="M68.937 126.705C68.8203 126.705 68.7035 126.659 68.6218 126.571L63.0828 120.851C60.1061 117.875 56.7617 115.411 53.1546 113.532C53.0204 113.462 52.9328 113.328 52.9212 113.182C52.9095 113.036 52.9737 112.884 53.0963 112.797C58.8629 108.442 64.6295 105.944 68.9136 105.944C70.0226 105.944 71.009 106.119 71.8553 106.458C73.4546 107.106 74.4818 108.332 74.9196 110.106C75.9118 114.139 73.8048 120.273 69.293 126.519C69.2171 126.624 69.1004 126.688 68.972 126.7C68.9603 126.7 68.9487 126.7 68.9428 126.7L68.937 126.705Z" fill="#93D1EE"/>
<path d="M68.9137 106.394C69.9643 106.394 70.8981 106.557 71.6919 106.873C73.1511 107.462 74.0908 108.589 74.4935 110.217C75.4624 114.157 73.3087 120.215 68.937 126.268L63.398 120.548C60.2637 117.414 56.8551 114.968 53.3589 113.147C58.8687 108.991 64.6179 106.388 68.9137 106.388M68.9137 105.519C64.5362 105.519 58.6703 108.046 52.8278 112.458C52.5885 112.639 52.4601 112.931 52.4834 113.229C52.5068 113.526 52.6877 113.795 52.9504 113.935C56.5224 115.791 59.826 118.225 62.7735 121.178L68.3008 126.887C68.4642 127.056 68.6919 127.155 68.9312 127.155C68.9545 127.155 68.972 127.155 68.9954 127.155C69.2522 127.138 69.4915 127.003 69.6432 126.793C74.2309 120.443 76.3613 114.174 75.3398 110.019C74.8729 108.128 73.7231 106.762 72.0129 106.073C71.1199 105.711 70.0752 105.53 68.9078 105.53L68.9137 105.519Z" fill="#0000F4"/>
<path d="M33.2866 114.565C32.7438 114.565 32.2477 114.477 31.8157 114.302C31.4422 114.15 31.1212 113.94 30.8585 113.672L25.4713 108.11C25.302 107.934 25.3079 107.66 25.483 107.491C25.5705 107.409 25.6756 107.368 25.7865 107.368C25.8974 107.368 26.0141 107.415 26.1016 107.502C26.2767 107.683 26.4985 107.829 26.7554 107.934C27.0822 108.069 27.4674 108.133 27.8993 108.133C30.4908 108.133 34.3839 105.757 37.168 102.489C39.9579 99.2144 41.0494 95.7007 39.7186 94.3233C39.5493 94.1482 39.5552 93.8739 39.7303 93.7046C39.8178 93.6229 39.9229 93.582 40.0338 93.582C40.1447 93.582 40.2614 93.6287 40.349 93.7163L45.7362 99.2786C47.4405 101.035 46.4074 104.876 43.2264 108.617C40.2439 112.119 36.1582 114.571 33.2924 114.571L33.2866 114.565Z" fill="#B6FCE1"/>
<path d="M40.0337 94.0201L45.421 99.5824C46.9152 101.123 45.9405 104.748 42.8879 108.332C39.9287 111.804 35.9656 114.127 33.2865 114.127C32.8079 114.127 32.3644 114.052 31.9791 113.9C31.6581 113.771 31.3896 113.59 31.1737 113.369L25.7864 107.806C26.0024 108.028 26.2709 108.209 26.5919 108.337C26.9771 108.495 27.4149 108.565 27.8993 108.565C30.5842 108.565 34.5473 106.242 37.5006 102.769C40.5474 99.1855 41.5279 95.5609 40.0337 94.0201ZM40.6641 93.4072L40.0337 94.0142L39.4034 94.6212C40.419 95.666 39.7361 98.7886 36.8352 102.197C34.127 105.378 30.3682 107.69 27.8993 107.69C27.5258 107.69 27.1931 107.631 26.9246 107.52C26.7261 107.439 26.5569 107.328 26.4226 107.193C26.2534 107.018 26.0199 106.925 25.7923 106.925C25.5705 106.925 25.3545 107.007 25.1852 107.17C24.8409 107.509 24.8292 108.063 25.1677 108.407L30.555 113.97C30.8585 114.285 31.232 114.53 31.6581 114.705C32.1426 114.898 32.6912 114.997 33.2924 114.997C36.2808 114.997 40.5007 112.487 43.5649 108.892C46.8977 104.975 47.9249 100.89 46.0572 98.9637L40.6699 93.4014L40.6641 93.4072Z" fill="#0000F4"/>
<path d="M28.2845 110.987C27.6658 110.987 27.1055 110.888 26.6211 110.689C26.2008 110.52 25.8389 110.281 25.5471 109.977L19.3602 103.592L19.9906 102.985C20.2007 103.201 20.4575 103.37 20.7669 103.493C21.1463 103.644 21.6015 103.726 22.1035 103.726C25.1444 103.726 29.5394 101.053 32.8021 97.224C36.0239 93.436 37.2788 89.3678 35.7263 87.7627C35.557 87.5876 35.5628 87.3133 35.7379 87.1441C35.8255 87.0623 35.9305 87.0215 36.0414 87.0215C36.1523 87.0215 36.2691 87.0682 36.3566 87.1557L42.5435 93.541C44.4754 95.5372 43.2906 99.9089 39.6602 104.181C36.2457 108.191 31.5764 110.993 28.2962 110.993L28.2845 110.987Z" fill="#8359E8"/>
<path d="M36.0297 87.4536L42.2166 93.8389C43.9326 95.6133 42.812 99.7748 39.31 103.89C35.913 107.882 31.3604 110.549 28.2786 110.549C27.7242 110.549 27.2222 110.462 26.7786 110.287C26.4109 110.135 26.1016 109.931 25.8564 109.674L19.6695 103.289C19.9205 103.545 20.224 103.75 20.5917 103.901C21.0353 104.082 21.5373 104.164 22.0918 104.164C25.1735 104.164 29.7261 101.497 33.1231 97.5044C36.6251 93.3895 37.7457 89.228 36.0297 87.4536ZM36.6601 86.8466L36.0297 87.4536L35.3994 88.0606C36.6076 89.3039 35.8371 92.9634 32.4577 96.9324C29.3292 100.609 24.9692 103.283 22.0976 103.283C21.6482 103.283 21.2571 103.213 20.9244 103.084C20.6793 102.985 20.4692 102.845 20.2999 102.676L19.6695 103.283L19.0392 103.89L25.2261 110.275C25.5646 110.625 25.9732 110.9 26.4518 111.086C26.9887 111.302 27.6074 111.413 28.2786 111.413C31.6756 111.413 36.485 108.547 39.9753 104.444C43.7575 99.9966 44.9365 95.3798 42.8411 93.2144L36.6543 86.8291L36.6601 86.8466Z" fill="#0000F4"/>
<path d="M22.0976 104.602C21.4789 104.602 20.9186 104.503 20.4342 104.304C19.4711 103.913 18.8233 103.16 18.5664 102.116C17.9944 99.7984 19.4069 96.2848 22.2377 92.9579C25.6522 88.9422 30.3273 86.1406 33.6075 86.1406C34.2262 86.1406 34.7866 86.2398 35.271 86.4383C36.2341 86.8293 36.8819 87.5823 37.1387 88.627C37.7107 90.9442 36.2983 94.4579 33.4616 97.7906C30.0472 101.8 25.3778 104.602 22.0976 104.602Z" fill="#D5C5FA"/>
<path d="M33.6017 86.5786C34.1562 86.5786 34.6582 86.6662 35.1017 86.8413C38.0142 88.0203 37.1329 92.7888 33.1231 97.5049C29.7262 101.497 25.1736 104.165 22.0918 104.165C21.5373 104.165 21.0354 104.077 20.5918 103.902C17.6793 102.723 18.5606 97.9543 22.5704 93.2441C25.9673 89.246 30.52 86.5844 33.6017 86.5844M33.6017 85.7031C30.2048 85.7031 25.3954 88.5689 21.8992 92.6721C18.975 96.1099 17.5334 99.7695 18.1345 102.221C18.4264 103.406 19.1618 104.264 20.2591 104.707C20.7961 104.923 21.4147 105.034 22.086 105.034C25.4829 105.034 30.2923 102.168 33.7827 98.0652C36.7068 94.6274 38.1543 90.9678 37.5473 88.5105C37.2555 87.3257 36.5201 86.4677 35.4228 86.0241C34.8858 85.8082 34.2671 85.6973 33.5959 85.6973L33.6017 85.7031Z" fill="#0000F4"/>
</svg>
