<svg width="196" height="286" viewBox="0 0 196 286" fill="none" xmlns="http://www.w3.org/2000/svg">
<mask id="path-1-inside-1_3_1978" fill="white">
<path d="M196 0L196 45L196 242.215L151.687 286L100.557 242.215L51.9826 286L4.67124e-06 242.215L1.32918e-05 45L1.37542e-05 34.4211L0 0L100.557 -1.18851e-07L196 0Z"/>
</mask>
<path d="M196 0L196 45L196 242.215L151.687 286L100.557 242.215L51.9826 286L4.67124e-06 242.215L1.32918e-05 45L1.37542e-05 34.4211L0 0L100.557 -1.18851e-07L196 0Z" fill="#D4BCFE"/>
<path d="M98 45L98 43.5L98 45ZM196 45L196 43.5L98 43.5L98 45L98 46.5L196 46.5L196 45ZM98 45L98 43.5L1.33573e-05 43.5L1.32918e-05 45L1.32262e-05 46.5L98 46.5L98 45ZM196 0L199 0L199 -3L196 -3L196 0ZM196 242.215L198.109 244.349L199 243.468L199 242.215L196 242.215ZM4.67124e-06 242.215L-3 242.215L-3 243.61L-1.93267 244.509L4.67124e-06 242.215ZM0 0L1.31134e-07 -3L-3 -3L-3 1.19876e-06L0 0ZM100.557 242.215L102.508 239.936L100.506 238.222L98.5479 239.987L100.557 242.215ZM100.557 -1.18851e-07L100.557 -3L100.557 -1.18851e-07ZM196 45L193 45L196 45ZM1.37542e-05 34.4211L3.00001 34.4211V34.4211L1.37542e-05 34.4211ZM151.687 286L149.736 288.279L151.832 290.074L153.796 288.134L151.687 286ZM51.9826 286L50.0499 288.295L52.0494 289.979L53.9912 288.228L51.9826 286ZM0 0L-1.31135e-07 3L100.557 3L100.557 -1.18851e-07L100.557 -3L1.31134e-07 -3L0 0ZM100.557 -1.18851e-07L100.557 3L196 3L196 0L196 -3L100.557 -3L100.557 -1.18851e-07ZM196 0L193 0L193 45L196 45L199 45L199 0L196 0ZM196 45L193 45L193 242.215L196 242.215L199 242.215L199 45L196 45ZM4.67124e-06 242.215L3 242.215L3.00001 45L1.32918e-05 45L-2.99999 45L-3 242.215L4.67124e-06 242.215ZM1.32918e-05 45L3.00001 45L3.00001 34.4211L1.37542e-05 34.4211L-2.99999 34.4211L-2.99999 45L1.32918e-05 45ZM1.37542e-05 34.4211L3.00001 34.4211L3 -1.19876e-06L0 0L-3 1.19876e-06L-2.99999 34.4211L1.37542e-05 34.4211ZM196 242.215L193.891 240.081L149.578 283.866L151.687 286L153.796 288.134L198.109 244.349L196 242.215ZM151.687 286L153.638 283.721L102.508 239.936L100.557 242.215L98.6052 244.494L149.736 288.279L151.687 286ZM100.557 242.215L98.5479 239.987L49.974 283.772L51.9826 286L53.9912 288.228L102.565 244.443L100.557 242.215ZM51.9826 286L53.9153 283.706L1.93268 239.92L4.67124e-06 242.215L-1.93267 244.509L50.0499 288.295L51.9826 286Z" fill="#A47CDB" mask="url(#path-1-inside-1_3_1978)"/>
</svg>
