<svg width="196" height="304" viewBox="0 0 196 304" fill="none" xmlns="http://www.w3.org/2000/svg">
<mask id="path-1-inside-1_3_2072" fill="white">
<path d="M196 0L196 45.5L196 276.468L144.018 261.02L98.0002 303.503L53.6872 261.02L0.000262573 276.468L1.32699e-05 45.5L0.00025795 33.1578L1.52588e-05 -2.80745e-08L95 -2.80733e-08L196 0Z"/>
</mask>
<path d="M196 0L196 45.5L196 276.468L144.018 261.02L98.0002 303.503L53.6872 261.02L0.000262573 276.468L1.32699e-05 45.5L0.00025795 33.1578L1.52588e-05 -2.80745e-08L95 -2.80733e-08L196 0Z" fill="#A47CDB"/>
<path d="M98.5 45.5L98.5 47L98.5 45.5ZM196 45.5L196 44L98.5 44L98.5 45.5L98.5 47L196 47L196 45.5ZM98.5 45.5L98.5 44L1.33355e-05 44L1.32699e-05 45.5L1.32044e-05 47L98.5 47L98.5 45.5ZM196 0L199 0L199 -3L196 -3L196 0ZM196 276.468L195.146 279.344L199 280.49L199 276.468L196 276.468ZM0.000262573 276.468L-2.99974 276.468L-2.99974 280.453L0.829852 279.351L0.000262573 276.468ZM1.52588e-05 -2.80745e-08L1.53899e-05 -3L-3 -3L-2.99998 2.19298e-05L1.52588e-05 -2.80745e-08ZM98.0002 303.503L95.9241 305.668L97.9615 307.622L100.035 305.707L98.0002 303.503ZM95 -2.80733e-08L95 -3L95 -2.80733e-08ZM196 45.5L199 45.5L196 45.5ZM1.32699e-05 45.5L-2.99999 45.4999L-2.99999 45.5L1.32699e-05 45.5ZM0.00025795 33.1578L3.00026 33.1579L3.00026 33.1578L0.00025795 33.1578ZM144.018 261.02L144.872 258.144L143.236 257.658L141.983 258.816L144.018 261.02ZM53.6872 261.02L55.7633 258.854L54.517 257.659L52.8576 258.137L53.6872 261.02ZM1.52588e-05 -2.80745e-08L1.51277e-05 3L95 3L95 -2.80733e-08L95 -3L1.53899e-05 -3L1.52588e-05 -2.80745e-08ZM95 -2.80733e-08L95 3L196 3L196 0L196 -3L95 -3L95 -2.80733e-08ZM196 0L193 0L193 45.5L196 45.5L199 45.5L199 0L196 0ZM196 45.5L193 45.5L193 276.468L196 276.468L199 276.468L199 45.5L196 45.5ZM0.000262573 276.468L3.00026 276.468L3.00001 45.5L1.32699e-05 45.5L-2.99999 45.5L-2.99974 276.468L0.000262573 276.468ZM1.32699e-05 45.5L3.00001 45.5001L3.00026 33.1579L0.00025795 33.1578L-2.99974 33.1577L-2.99999 45.4999L1.32699e-05 45.5ZM0.00025795 33.1578L3.00026 33.1578L3.00002 -2.19859e-05L1.52588e-05 -2.80745e-08L-2.99998 2.19298e-05L-2.99974 33.1578L0.00025795 33.1578ZM196 276.468L196.855 273.593L144.872 258.144L144.018 261.02L143.163 263.896L195.146 279.344L196 276.468ZM144.018 261.02L141.983 258.816L95.9653 301.299L98.0002 303.503L100.035 305.707L146.053 263.224L144.018 261.02ZM98.0002 303.503L100.076 301.337L55.7633 258.854L53.6872 261.02L51.6111 263.186L95.9241 305.668L98.0002 303.503ZM53.6872 261.02L52.8576 258.137L-0.829327 273.585L0.000262573 276.468L0.829852 279.351L54.5168 263.903L53.6872 261.02Z" fill="#D4BCFE" mask="url(#path-1-inside-1_3_2072)"/>
<path d="M139.711 169.154C160.19 169.154 176.791 152.552 176.791 132.073C176.791 111.595 160.19 94.9932 139.711 94.9932C119.232 94.9932 102.631 111.595 102.631 132.073C102.631 152.552 119.232 169.154 139.711 169.154Z" fill="#65A0F5" stroke="#0000F4" stroke-width="1.5" stroke-linecap="round" stroke-linejoin="round"/>
<path d="M118.23 130.507C124.646 134.213 129.822 143.18 129.797 150.55C129.772 157.919 124.567 160.894 118.15 157.194C111.733 153.494 106.552 144.514 106.577 137.145C106.601 129.775 111.813 126.801 118.23 130.507Z" fill="#EB7956" stroke="#0000F4" stroke-width="1.5" stroke-linecap="round" stroke-linejoin="round"/>
<path d="M160.282 85.8354L122.692 64.133C119.017 62.0126 115.132 62.0433 112.293 64.2252C109.103 66.6776 108.015 71.1828 109.385 76.2841L116.337 102.123C116.423 102.436 116.54 102.738 116.681 103.02C119.189 101.029 121.955 99.3571 124.929 98.0664L118.414 73.8564C118.414 73.8564 118.414 73.8441 118.414 73.8379C118.255 73.2356 118.912 72.7501 119.453 73.0574L155.611 93.9361C158.684 95.7124 160.676 100.758 160 102.461L153.497 118.761C152.593 121.023 153.454 123.69 155.624 124.802C156.318 125.159 157.056 125.331 157.775 125.331C159.631 125.331 161.389 124.219 162.12 122.387L168.684 105.927C171.223 99.5599 167.142 89.7997 160.289 85.8415L160.282 85.8354Z" fill="#AA51F6" stroke="#0000F4" stroke-width="1.5" stroke-linecap="round" stroke-linejoin="round"/>
<path d="M38.5195 121.004C35.3357 119.154 30.9289 119.412 26.0611 122.221C16.393 127.802 8.58118 141.336 8.61191 152.448C8.63035 157.967 10.5787 161.852 13.7194 163.677L22.2381 168.631C19.0974 166.806 17.149 162.921 17.1306 157.402C17.0999 146.289 24.9117 132.755 34.5797 127.175C39.4475 124.366 43.8544 124.108 47.0381 125.958L38.5195 121.004Z" fill="#B6FCE1" stroke="#0000F4" stroke-width="1.5" stroke-linecap="round" stroke-linejoin="round"/>
<path d="M53.1657 118.184C48.8203 115.657 42.8031 116.014 36.1652 119.849C22.9692 127.471 12.2994 145.946 12.3424 161.109C12.3609 168.644 15.0222 173.942 19.3122 176.431L30.9409 183.192C26.6508 180.697 23.9895 175.399 23.9711 167.87C23.9281 152.707 34.5918 134.231 47.7939 126.61C54.4318 122.775 60.449 122.418 64.7944 124.944L53.1657 118.184Z" fill="#B6FCE1" stroke="#0000F4" stroke-width="1.5" stroke-linecap="round" stroke-linejoin="round"/>
<path d="M67.6889 117.022C62.5014 114.004 55.3103 114.434 47.3817 119.013C31.6166 128.115 18.8816 150.174 18.9369 168.287C18.9615 177.285 22.1391 183.616 27.2589 186.597L41.1494 194.667C36.0235 191.692 32.852 185.361 32.8274 176.357C32.7783 158.244 45.5133 136.185 61.2722 127.083C69.207 122.504 76.3919 122.08 81.5793 125.092L67.6889 117.022Z" fill="#B6FCE1" stroke="#0000F4" stroke-width="1.5" stroke-linecap="round" stroke-linejoin="round"/>
<path d="M61.2728 127.083C77.0379 117.98 89.8528 125.288 89.9081 143.401C89.9572 161.514 77.2223 183.573 61.4633 192.675C45.6982 201.778 32.8833 194.47 32.828 176.357C32.7789 158.244 45.5138 136.185 61.2728 127.083Z" fill="#65A0F5" stroke="#0000F4" stroke-width="1.5" stroke-linecap="round" stroke-linejoin="round"/>
<path d="M61.2848 131.521C74.9172 123.654 85.9988 129.966 86.0419 145.626C86.0849 161.287 75.077 180.359 61.4446 188.232C47.8123 196.105 36.7306 189.787 36.6876 174.126C36.6446 158.466 47.6525 139.394 61.2848 131.521Z" fill="#1E49F1" stroke="#0000F4" stroke-width="1.5" stroke-linecap="round" stroke-linejoin="round"/>
<path d="M61.3342 149.682C66.2327 146.855 70.2216 149.123 70.2339 154.753C70.2462 160.383 66.2881 167.242 61.3895 170.069C56.491 172.897 52.5021 170.629 52.4898 164.999C52.4775 159.369 56.4357 152.51 61.3342 149.682Z" fill="#AA51F6" stroke="#0000F4" stroke-width="1.5" stroke-linecap="round" stroke-linejoin="round"/>
<path d="M66.6198 151.889C65.366 151.157 63.6266 151.262 61.709 152.368C57.8983 154.569 54.819 159.897 54.8313 164.286C54.8375 166.462 55.6058 167.992 56.8412 168.711L121.819 206.473C120.584 205.754 119.815 204.224 119.809 202.048C119.797 197.666 122.876 192.331 126.687 190.131C128.605 189.024 130.338 188.92 131.598 189.651L66.6198 151.889Z" fill="#8359E8" stroke="#0000F4" stroke-width="1.5" stroke-linecap="round" stroke-linejoin="round"/>
<path d="M126.692 190.131C130.503 187.93 133.601 189.694 133.613 194.076C133.625 198.459 130.546 203.788 126.735 205.988C122.925 208.188 119.827 206.424 119.815 202.042C119.802 197.66 122.882 192.325 126.692 190.124V190.131Z" fill="white" stroke="#0000F4" stroke-width="1.5" stroke-linecap="round" stroke-linejoin="round"/>
<path d="M148.346 163.788C143.158 160.77 135.967 161.201 128.038 165.78C112.273 174.882 99.5384 196.941 99.5937 215.054C99.6183 224.052 102.796 230.383 107.916 233.363L121.806 241.433C116.68 238.459 113.509 232.128 113.484 223.124C113.435 205.011 126.17 182.952 141.929 173.85C149.864 169.271 157.049 168.846 162.236 171.858L148.346 163.788Z" fill="#B6FCE1" stroke="#0000F4" stroke-width="1.5" stroke-linecap="round" stroke-linejoin="round"/>
<path d="M141.929 173.855C157.694 164.753 170.509 172.061 170.564 190.173C170.613 208.286 157.878 230.345 142.119 239.448C126.354 248.55 113.539 241.242 113.484 223.13C113.435 205.017 126.17 182.958 141.929 173.855Z" fill="#65A0F5" stroke="#0000F4" stroke-width="1.5" stroke-linecap="round" stroke-linejoin="round"/>
<path d="M160.404 178.963C156.059 176.437 150.042 176.793 143.404 180.628C130.208 188.25 119.538 206.725 119.581 221.888C119.6 229.423 122.261 234.721 126.551 237.211L138.18 243.972C133.89 241.476 131.228 236.178 131.21 228.649C131.167 213.486 141.831 195.011 155.033 187.389C161.671 183.554 167.688 183.198 172.033 185.724L160.404 178.963Z" fill="#B6FCE1" stroke="#0000F4" stroke-width="1.5" stroke-linecap="round" stroke-linejoin="round"/>
<path d="M155.039 187.389C168.235 179.768 178.967 185.89 179.01 201.052C179.053 216.215 168.389 234.685 155.193 242.306C141.997 249.927 131.26 243.812 131.217 228.649C131.174 213.486 141.837 195.011 155.039 187.389Z" fill="#65A0F5" stroke="#0000F4" stroke-width="1.5" stroke-linecap="round" stroke-linejoin="round"/>
<path d="M155.051 192.792C165.647 186.67 174.27 191.587 174.307 203.769C174.344 215.951 165.776 230.782 155.18 236.897C144.584 243.019 135.961 238.108 135.924 225.926C135.887 213.745 144.455 198.908 155.057 192.792H155.051Z" fill="#1E49F1" stroke="#0000F4" stroke-width="1.5" stroke-linecap="round" stroke-linejoin="round"/>
<path d="M170.373 196.775C167.19 194.925 162.783 195.184 157.915 197.992C148.247 203.573 140.435 217.107 140.466 228.219C140.484 233.739 142.433 237.623 145.573 239.449L154.092 244.403C150.951 242.577 149.003 238.693 148.985 233.173C148.954 222.061 156.766 208.527 166.434 202.946C171.302 200.137 175.708 199.879 178.892 201.729L170.373 196.775Z" fill="#B6FCE1" stroke="#0000F4" stroke-width="1.5" stroke-linecap="round" stroke-linejoin="round"/>
<path d="M166.434 202.946C176.102 197.366 183.969 201.846 184 212.959C184.031 224.071 176.219 237.599 166.544 243.186C156.876 248.767 149.015 244.286 148.985 233.18C148.954 222.073 156.766 208.533 166.434 202.953V202.946Z" fill="#65A0F5" stroke="#0000F4" stroke-width="1.5" stroke-linecap="round" stroke-linejoin="round"/>
<path d="M166.452 207.666C173.852 203.395 179.875 206.824 179.9 215.331C179.925 223.837 173.944 234.194 166.538 238.465C159.138 242.737 153.121 239.307 153.096 230.807C153.072 222.307 159.052 211.944 166.452 207.673V207.666Z" fill="#1E49F1" stroke="#0000F4" stroke-width="1.5" stroke-linecap="round" stroke-linejoin="round"/>
<path d="M166.483 218.391C168.726 217.095 170.552 218.133 170.564 220.715C170.576 223.296 168.757 226.437 166.514 227.734C164.27 229.03 162.445 227.992 162.439 225.41C162.433 222.829 164.246 219.688 166.489 218.391H166.483Z" fill="#AA51F6" stroke="#0000F4" stroke-width="1.5" stroke-linecap="round" stroke-linejoin="round"/>
</svg>
